<svg width="215" height="38" viewBox="0 0 215 38" fill="none" xmlns="http://www.w3.org/2000/svg">
<path d="M1.81125 30C1.51792 30 1.26458 29.8933 1.05125 29.68C0.837917 29.4667 0.73125 29.2133 0.73125 28.92V3.08C0.73125 2.78667 0.837917 2.53333 1.05125 2.32C1.26458 2.10666 1.51792 2 1.81125 2H8.13125C8.66458 2 9.06458 2.14667 9.33125 2.44C9.59792 2.73333 9.77125 2.94667 9.85125 3.08L15.6513 12.68L21.4513 3.08C21.5313 2.94667 21.7046 2.73333 21.9713 2.44C22.2379 2.14667 22.6379 2 23.1713 2H29.4913C29.7846 2 30.0379 2.10666 30.2513 2.32C30.4646 2.53333 30.5713 2.78667 30.5713 3.08V28.92C30.5713 29.2133 30.4646 29.4667 30.2513 29.68C30.0379 29.8933 29.7846 30 29.4913 30H22.2513C21.9579 30 21.7046 29.8933 21.4913 29.68C21.2779 29.4667 21.1713 29.2133 21.1713 28.92V17.96L18.5312 22.28C18.3979 22.4933 18.2113 22.72 17.9713 22.96C17.7579 23.1733 17.4513 23.28 17.0513 23.28H14.2513C13.8513 23.28 13.5313 23.1733 13.2913 22.96C13.0779 22.72 12.9046 22.4933 12.7713 22.28L10.1313 17.96V28.92C10.1313 29.2133 10.0246 29.4667 9.81125 29.68C9.59792 29.8933 9.34458 30 9.05125 30H1.81125ZM28.8913 3.12C28.6246 2.96 28.3579 3.01333 28.0913 3.28C27.9846 3.38667 27.9446 3.49333 27.9713 3.6C28.0246 3.68 28.0913 3.8 28.1713 3.96C28.2513 4.09333 28.3046 4.2 28.3313 4.28C28.3846 4.36 28.4913 4.38667 28.6513 4.36C28.8379 4.33333 28.9713 4.29333 29.0513 4.24C29.1579 4.18667 29.2246 4.06667 29.2513 3.88C29.3046 3.53333 29.1846 3.28 28.8913 3.12ZM22.9713 3.64C22.7846 3.56 22.6379 3.56 22.5313 3.64C22.4513 3.72 22.3446 3.84 22.2113 4C22.1046 4.13333 22.0646 4.25333 22.0913 4.36C22.1179 4.44 22.1713 4.54667 22.2513 4.68C22.3846 4.89333 22.5713 4.97333 22.8113 4.92C23.0513 4.84 23.1846 4.68 23.2113 4.44C23.2113 4.22667 23.2113 4.06667 23.2113 3.96C23.2379 3.82667 23.1579 3.72 22.9713 3.64ZM2.57125 3.96L2.05125 4.12L1.65125 4.52L2.17125 4.84L2.69125 4.6L2.57125 3.96ZM26.1313 6.48C25.8113 6.4 25.6113 6.45333 25.5313 6.64C25.4779 6.82667 25.3713 7.04 25.2113 7.28C25.0513 7.54667 24.9179 7.74667 24.8113 7.88C24.7046 8.01333 24.7446 8.2 24.9313 8.44C25.1446 8.68 25.3313 8.81333 25.4913 8.84C25.6513 8.84 25.8913 8.77333 26.2113 8.64C26.4779 8.53333 26.6379 8.41333 26.6913 8.28C26.7713 8.12 26.7979 7.89333 26.7713 7.6C26.7446 7.28 26.7046 7.04 26.6513 6.88C26.5979 6.69333 26.4246 6.56 26.1313 6.48ZM4.05125 7.6C3.99792 7.36 3.94458 7.18667 3.89125 7.08C3.83792 6.97333 3.69125 6.92 3.45125 6.92C3.21125 6.92 3.03792 6.96 2.93125 7.04C2.85125 7.09333 2.75792 7.24 2.65125 7.48C2.57125 7.66666 2.57125 7.81333 2.65125 7.92C2.73125 8 2.85125 8.10667 3.01125 8.24C3.25125 8.45333 3.50458 8.46667 3.77125 8.28C4.03792 8.12 4.13125 7.89333 4.05125 7.6ZM8.29125 7.48C8.23792 7.29333 8.07792 7.21333 7.81125 7.24C7.67792 7.24 7.55792 7.25333 7.45125 7.28C7.37125 7.28 7.30458 7.34667 7.25125 7.48C7.22458 7.64 7.25125 7.73333 7.33125 7.76C7.43792 7.78667 7.55792 7.84 7.69125 7.92C7.79792 8 7.87792 8.08 7.93125 8.16C8.01125 8.21333 8.11792 8.18667 8.25125 8.08C8.35792 8 8.39792 7.92 8.37125 7.84C8.37125 7.73333 8.34458 7.61333 8.29125 7.48ZM23.0913 8.4C22.8779 8.4 22.7046 8.4 22.5713 8.4C22.4646 8.37333 22.3713 8.46667 22.2913 8.68C22.2113 8.92 22.1846 9.10666 22.2113 9.24C22.2379 9.34666 22.3446 9.48 22.5313 9.64C22.7179 9.8 22.8646 9.84 22.9713 9.76C23.0779 9.68 23.2246 9.57333 23.4113 9.44C23.5979 9.33333 23.7313 9.24 23.8113 9.16C23.8913 9.08 23.9046 8.93333 23.8513 8.72C23.7979 8.53333 23.7046 8.44 23.5713 8.44C23.4646 8.41333 23.3046 8.4 23.0913 8.4ZM10.9713 10.08C10.7579 9.86667 10.5713 9.73333 10.4113 9.68C10.2779 9.6 10.0913 9.62667 9.85125 9.76C9.55792 9.92 9.35792 10.08 9.25125 10.24C9.17125 10.3733 9.17125 10.6133 9.25125 10.96C9.30458 11.2533 9.39792 11.44 9.53125 11.52C9.69125 11.5733 9.93125 11.6267 10.2513 11.68C10.4913 11.7067 10.6513 11.6667 10.7313 11.56C10.8113 11.4267 10.9046 11.2533 11.0113 11.04C11.1179 10.8267 11.1846 10.6533 11.2113 10.52C11.2379 10.3867 11.1579 10.24 10.9713 10.08ZM6.81125 10.16C6.09125 9.89333 5.54458 9.84 5.17125 10C4.79792 10.1333 4.37125 10.4933 3.89125 11.08C3.65125 11.4267 3.55792 11.7067 3.61125 11.92C3.66458 12.1333 3.79792 12.36 4.01125 12.6C4.22458 12.84 4.43792 13.1333 4.65125 13.48C4.97125 13.9333 5.22458 14.3067 5.41125 14.6C5.59792 14.8667 5.95792 14.92 6.49125 14.76C7.05125 14.6 7.34458 14.36 7.37125 14.04C7.42458 13.72 7.46458 13.2667 7.49125 12.68C7.51792 12.2533 7.55792 11.88 7.61125 11.56C7.66458 11.24 7.63792 10.9733 7.53125 10.76C7.45125 10.52 7.21125 10.32 6.81125 10.16ZM27.4913 10.24C27.3046 10.2133 27.1579 10.2 27.0513 10.2C26.9446 10.2 26.8513 10.2933 26.7713 10.48C26.6913 10.64 26.7046 10.7467 26.8113 10.8C26.9179 10.8533 27.0379 10.9333 27.1713 11.04C27.2779 11.1733 27.3579 11.2933 27.4113 11.4C27.4646 11.5067 27.5713 11.52 27.7313 11.44C28.0246 11.3067 28.1446 11.0533 28.0913 10.68C28.0646 10.52 27.9979 10.4133 27.8913 10.36C27.8113 10.3067 27.6779 10.2667 27.4913 10.24ZM26.1713 12.84C26.0379 12.68 25.9046 12.6133 25.7713 12.64C25.6379 12.64 25.4646 12.68 25.2513 12.76C25.0913 12.8133 25.0113 12.8933 25.0113 13C25.0113 13.1067 25.0113 13.24 25.0113 13.4C25.0113 13.6667 25.1179 13.8267 25.3313 13.88C25.5713 13.96 25.7579 14.04 25.8913 14.12C26.0246 14.2 26.1579 14.1333 26.2913 13.92C26.4513 13.7067 26.5179 13.5333 26.4913 13.4C26.4646 13.24 26.3579 13.0533 26.1713 12.84ZM19.2513 13.32C18.9046 13.1067 18.6246 13.0267 18.4113 13.08C18.1979 13.1067 17.9313 13.2533 17.6113 13.52C17.1846 13.8667 16.8113 14.1333 16.4913 14.32C16.1979 14.48 16.1446 14.8133 16.3313 15.32C16.5446 15.88 16.7979 16.2 17.0913 16.28C17.4113 16.36 17.8779 16.3867 18.4913 16.36C18.9713 16.3333 19.2779 16.2133 19.4113 16C19.5713 15.7867 19.7313 15.44 19.8913 14.96C19.9979 14.56 19.9979 14.2533 19.8913 14.04C19.8113 13.8267 19.5979 13.5867 19.2513 13.32ZM23.2113 14C23.0246 13.8133 22.8513 13.76 22.6913 13.84C22.5046 13.9467 22.4246 14.12 22.4513 14.36C22.4779 14.52 22.5046 14.6533 22.5313 14.76C22.5846 14.84 22.6913 14.8933 22.8513 14.92C23.0113 14.9467 23.1046 14.92 23.1313 14.84C23.1846 14.7333 23.2513 14.6133 23.3313 14.48C23.4113 14.32 23.3713 14.16 23.2113 14ZM11.4913 14C11.4113 13.8933 11.2779 13.8933 11.0913 14C10.9579 14.0533 10.8513 14.0933 10.7713 14.12C10.7179 14.1467 10.6913 14.2133 10.6913 14.32C10.7179 14.5333 10.8646 14.6667 11.1313 14.72C11.3979 14.7733 11.5713 14.7067 11.6513 14.52C11.7313 14.4133 11.7446 14.3333 11.6913 14.28C11.6646 14.2 11.5979 14.1067 11.4913 14ZM26.0913 15.6C26.0913 15.4133 26.1046 15.2667 26.1313 15.16C26.1846 15.0533 26.1313 14.9733 25.9713 14.92C25.7846 14.8667 25.6513 14.88 25.5713 14.96C25.5179 15.04 25.4246 15.1467 25.2913 15.28C25.1846 15.4667 25.1979 15.6667 25.3313 15.88C25.4379 16.0133 25.5179 16.1067 25.5713 16.16C25.6513 16.2133 25.7713 16.2133 25.9313 16.16C26.0646 16.1333 26.1179 16.08 26.0913 16C26.0913 15.8933 26.0913 15.76 26.0913 15.6ZM14.6113 15.48C14.2913 15.3467 14.0513 15.3467 13.8913 15.48C13.7313 15.6133 13.5446 15.8267 13.3313 16.12C13.0913 16.4133 12.9046 16.6533 12.7713 16.84C12.6379 17 12.6779 17.24 12.8913 17.56C13.1313 17.9333 13.3579 18.16 13.5713 18.24C13.7846 18.2933 14.0913 18.2667 14.4913 18.16C14.8646 18.0533 15.0513 17.8933 15.0513 17.68C15.0779 17.4667 15.1046 17.1733 15.1313 16.8C15.1579 16.4533 15.1579 16.1867 15.1313 16C15.1313 15.7867 14.9579 15.6133 14.6113 15.48ZM2.73125 15.88L2.45125 15.64L2.33125 16L2.45125 16.24L2.77125 16.2L2.73125 15.88ZM29.0513 17.72C28.8913 17.2133 28.6913 16.8933 28.4513 16.76C28.2113 16.6 27.8246 16.52 27.2913 16.52C26.7846 16.52 26.4246 16.6133 26.2113 16.8C26.0246 16.96 25.8513 17.28 25.6913 17.76C25.5579 18.2133 25.5446 18.5467 25.6513 18.76C25.7579 18.9733 26.0113 19.2267 26.4113 19.52C26.7313 19.76 26.9979 19.84 27.2113 19.76C27.4246 19.68 27.6913 19.52 28.0113 19.28C28.3846 19.0133 28.6779 18.8 28.8913 18.64C29.1313 18.4533 29.1846 18.1467 29.0513 17.72ZM9.05125 16.52L8.85125 16.68L8.81125 16.96L9.13125 17L9.21125 16.72L9.05125 16.52ZM4.45125 18C4.13125 17.7867 3.87792 17.6267 3.69125 17.52C3.50458 17.3867 3.26458 17.4267 2.97125 17.64C2.65125 17.88 2.50458 18.1067 2.53125 18.32C2.55792 18.5333 2.63792 18.8267 2.77125 19.2C2.87792 19.5733 2.99792 19.84 3.13125 20C3.26458 20.1333 3.51792 20.2 3.89125 20.2C4.37125 20.2 4.74458 20.1867 5.01125 20.16C5.30458 20.1067 5.51792 19.8533 5.65125 19.4C5.78458 18.9467 5.70458 18.6667 5.41125 18.56C5.14458 18.4533 4.82458 18.2667 4.45125 18ZM8.69125 18.08L8.25125 17.8L8.05125 18.24L8.17125 18.56L8.69125 18.6V18.08ZM16.5713 18.6C16.3579 18.4933 16.1979 18.48 16.0913 18.56C15.9846 18.64 15.8513 18.76 15.6913 18.92C15.4779 19.1333 15.4513 19.3867 15.6113 19.68C15.6913 19.84 15.7579 19.96 15.8113 20.04C15.8913 20.12 16.0379 20.1467 16.2513 20.12C16.4646 20.0933 16.6246 20.0533 16.7313 20C16.8379 19.92 16.9179 19.7733 16.9713 19.56C16.9979 19.2933 16.9846 19.0933 16.9313 18.96C16.9046 18.8267 16.7846 18.7067 16.5713 18.6ZM25.6913 21.2C25.3713 20.9333 25.1179 20.88 24.9313 21.04C24.7446 21.1733 24.4779 21.3467 24.1313 21.56C23.7579 21.8 23.4246 21.9733 23.1313 22.08C22.8646 22.1867 22.7979 22.4667 22.9313 22.92C23.0379 23.4 23.2113 23.6933 23.4513 23.8C23.7179 23.88 24.1046 23.9333 24.6113 23.96C25.0113 23.9867 25.2646 23.9067 25.3713 23.72C25.5046 23.5067 25.6379 23.2133 25.7713 22.84C25.9313 22.4667 26.0379 22.1733 26.0913 21.96C26.1446 21.72 26.0113 21.4667 25.6913 21.2ZM28.0913 21.36L27.5713 21.48L27.4113 22.04L27.9313 22.12L28.3313 21.88L28.0913 21.36ZM5.89125 22.96C5.89125 22.7467 5.89125 22.5867 5.89125 22.48C5.89125 22.3733 5.79792 22.2933 5.61125 22.24C5.42458 22.1867 5.29125 22.2133 5.21125 22.32C5.15792 22.4 5.07792 22.52 4.97125 22.68C4.86458 22.8667 4.89125 23.0533 5.05125 23.24C5.21125 23.48 5.39792 23.56 5.61125 23.48C5.79792 23.4 5.89125 23.2267 5.89125 22.96ZM28.0913 26.36C27.9046 26.04 27.7446 25.8 27.6113 25.64C27.5046 25.48 27.2646 25.44 26.8913 25.52C26.5179 25.6 26.2646 25.72 26.1313 25.88C25.9979 26.04 25.9046 26.32 25.8513 26.72C25.8246 27.0933 25.8646 27.36 25.9713 27.52C26.0779 27.68 26.3046 27.84 26.6513 28C27.0513 28.1867 27.3713 28.3333 27.6113 28.44C27.8513 28.52 28.1179 28.3867 28.4113 28.04C28.7046 27.7467 28.7713 27.4933 28.6113 27.28C28.4779 27.04 28.3046 26.7333 28.0913 26.36ZM6.49125 25.8L6.09125 25.56L5.53125 25.52L5.57125 26.2H6.17125L6.49125 25.8ZM23.0113 26.4L22.6113 26.6V27.08L23.0913 27.24L23.3713 26.76L23.0113 26.4ZM38.7091 37.6C38.4691 37.6 38.2557 37.52 38.0691 37.36C37.9091 37.2 37.8291 37 37.8291 36.76C37.8291 36.7067 37.8291 36.64 37.8291 36.56C37.8291 36.5067 37.8424 36.44 37.8691 36.36L41.0691 28.68L33.3491 10.44C33.3224 10.36 33.3091 10.2667 33.3091 10.16C33.3624 9.89333 33.4691 9.66667 33.6291 9.48C33.8157 9.29333 34.0424 9.2 34.3091 9.2H41.0691C41.4691 9.2 41.7624 9.30667 41.9491 9.52C42.1357 9.73333 42.2691 9.94667 42.3491 10.16L45.6291 19.28L49.0291 10.16C49.1357 9.92 49.2824 9.70667 49.4691 9.52C49.6824 9.30667 49.9891 9.2 50.3891 9.2H57.0691C57.3091 9.2 57.5224 9.29333 57.7091 9.48C57.8957 9.64 57.9891 9.82667 57.9891 10.04C57.9891 10.2 57.9757 10.3333 57.9491 10.44L46.6691 36.64C46.5624 36.88 46.4024 37.0933 46.1891 37.28C45.9757 37.4933 45.6691 37.6 45.2691 37.6H38.7091ZM37.5091 11.6C37.2691 11.4933 37.0824 11.4933 36.9491 11.6C36.8424 11.68 36.7091 11.8133 36.5491 12C36.3891 12.1867 36.2824 12.3467 36.2291 12.48C36.2024 12.6133 36.2557 12.7867 36.3891 13C36.5224 13.2133 36.6557 13.3333 36.7891 13.36C36.9224 13.36 37.1091 13.32 37.3491 13.24C37.5891 13.1867 37.7624 13.12 37.8691 13.04C37.9757 12.96 38.0424 12.7867 38.0691 12.52C38.0957 12.2533 38.0691 12.0533 37.9891 11.92C37.9091 11.7867 37.7491 11.68 37.5091 11.6ZM40.9891 12.16L40.7091 12.44L40.6691 12.8L41.1091 12.92V12.52L40.9891 12.16ZM54.2291 13.24C54.0691 12.9467 53.9091 12.7467 53.7491 12.64C53.6157 12.5067 53.3891 12.4667 53.0691 12.52C52.6424 12.6 52.3357 12.6933 52.1491 12.8C51.9624 12.9067 51.8291 13.16 51.7491 13.56C51.6957 13.96 51.7357 14.2533 51.8691 14.44C52.0291 14.6 52.3091 14.7733 52.7091 14.96C53.1091 15.1467 53.4291 15.28 53.6691 15.36C53.9091 15.4133 54.1891 15.28 54.5091 14.96C54.8024 14.64 54.8691 14.3733 54.7091 14.16C54.5757 13.9467 54.4157 13.64 54.2291 13.24ZM39.2691 13.28L38.9491 13.12L38.5891 13.28L38.7491 13.68L39.1091 13.6L39.2691 13.28ZM41.9891 13.88C41.6424 13.7733 41.3624 13.8533 41.1491 14.12C41.0424 14.28 41.0291 14.4 41.1091 14.48C41.1891 14.56 41.2824 14.6667 41.3891 14.8C41.4957 14.96 41.5757 15.0933 41.6291 15.2C41.6824 15.28 41.8024 15.2933 41.9891 15.24C42.1491 15.1867 42.2157 15.1067 42.1891 15C42.1891 14.8933 42.1891 14.7467 42.1891 14.56C42.1891 14.3733 42.1891 14.2267 42.1891 14.12C42.2157 14.0133 42.1491 13.9333 41.9891 13.88ZM36.6691 14.32L36.2291 14.4L36.3091 14.76L36.5891 15L36.7491 14.68L36.6691 14.32ZM38.9891 14.64C38.7757 14.56 38.6024 14.48 38.4691 14.4C38.3624 14.2933 38.2424 14.3333 38.1091 14.52C38.0024 14.68 38.0024 14.8133 38.1091 14.92C38.2157 15 38.3224 15.1333 38.4291 15.32C38.5357 15.48 38.6157 15.6 38.6691 15.68C38.7491 15.76 38.8691 15.7733 39.0291 15.72C39.2157 15.6667 39.3224 15.5867 39.3491 15.48C39.3757 15.3733 39.3891 15.2267 39.3891 15.04C39.3891 14.9067 39.3491 14.8133 39.2691 14.76C39.2157 14.7067 39.1224 14.6667 38.9891 14.64ZM49.1891 16.04C48.7357 15.9333 48.4024 15.9467 48.1891 16.08C48.0024 16.2133 47.7891 16.4667 47.5491 16.84C47.3624 17.1333 47.3491 17.36 47.5091 17.52C47.6691 17.68 47.8691 17.8933 48.1091 18.16C48.2957 18.3733 48.4557 18.52 48.5891 18.6C48.7224 18.68 48.9224 18.6667 49.1891 18.56C49.5091 18.4267 49.7491 18.3067 49.9091 18.2C50.0691 18.0933 50.1357 17.8667 50.1091 17.52C50.0824 17.0933 50.0157 16.7733 49.9091 16.56C49.8291 16.32 49.5891 16.1467 49.1891 16.04ZM40.7491 17.24C40.6957 17 40.5224 16.88 40.2291 16.88C40.0424 16.88 39.8957 16.88 39.7891 16.88C39.6824 16.88 39.5891 16.9733 39.5091 17.16C39.3757 17.48 39.4557 17.76 39.7491 18C39.9624 18.16 40.1224 18.2667 40.2291 18.32C40.3624 18.3467 40.5357 18.2933 40.7491 18.16C40.9357 18.0267 41.0024 17.8933 40.9491 17.76C40.8957 17.6267 40.8291 17.4533 40.7491 17.24ZM38.1891 16.92C38.0024 16.8667 37.8691 16.88 37.7891 16.96C37.7091 17.0133 37.6157 17.1333 37.5091 17.32C37.3757 17.48 37.2691 17.6267 37.1891 17.76C37.1357 17.8667 37.1757 18 37.3091 18.16C37.5757 18.48 37.8957 18.5733 38.2691 18.44C38.5091 18.36 38.6557 18.2667 38.7091 18.16C38.7624 18.0267 38.7891 17.84 38.7891 17.6C38.7891 17.3867 38.7491 17.24 38.6691 17.16C38.5891 17.0533 38.4291 16.9733 38.1891 16.92ZM52.4291 17.88C52.1891 17.88 52.0557 17.96 52.0291 18.12C52.0291 18.28 51.9891 18.4667 51.9091 18.68C51.8024 18.92 51.8557 19.12 52.0691 19.28C52.2024 19.4133 52.3091 19.52 52.3891 19.6C52.4957 19.6533 52.6291 19.6267 52.7891 19.52C52.9757 19.3867 53.0824 19.2667 53.1091 19.16C53.1357 19.0533 53.1224 18.8933 53.0691 18.68C53.0157 18.44 52.9624 18.2533 52.9091 18.12C52.8557 17.9867 52.6957 17.9067 52.4291 17.88ZM49.6691 20.4C49.4824 20.2933 49.3357 20.2667 49.2291 20.32C49.1224 20.3733 49.0024 20.4667 48.8691 20.6C48.7357 20.7333 48.6691 20.8533 48.6691 20.96C48.6957 21.0667 48.7624 21.2 48.8691 21.36C48.9491 21.52 49.0157 21.64 49.0691 21.72C49.1491 21.7733 49.2824 21.7867 49.4691 21.76C49.6557 21.7067 49.7757 21.64 49.8291 21.56C49.8824 21.48 49.9224 21.3467 49.9491 21.16C49.9757 20.9467 49.9757 20.7867 49.9491 20.68C49.9491 20.5733 49.8557 20.48 49.6691 20.4ZM43.9891 21.32C43.3757 21.1867 42.8824 21.1467 42.5091 21.2C42.1624 21.2267 41.8424 21.52 41.5491 22.08C41.1491 22.7733 40.8957 23.3333 40.7891 23.76C40.7091 24.16 40.9491 24.6533 41.5091 25.24C42.0157 25.8 42.4691 26.0133 42.8691 25.88C43.2957 25.72 43.8424 25.48 44.5091 25.16C45.1491 24.8667 45.5891 24.6 45.8291 24.36C46.0957 24.0933 46.1891 23.6133 46.1091 22.92C46.0291 22.28 45.8157 21.8933 45.4691 21.76C45.1491 21.6 44.6557 21.4533 43.9891 21.32ZM49.6291 24.16L49.3491 24.2L49.3091 24.48L49.5891 24.68L49.9091 24.4L49.6291 24.16ZM47.8291 25.24C47.7224 25.1067 47.6291 25.0267 47.5491 25C47.4691 24.9467 47.3624 24.9467 47.2291 25C47.0424 25.08 46.8957 25.1467 46.7891 25.2C46.7091 25.2533 46.6691 25.3867 46.6691 25.6C46.6691 25.84 46.6957 26.0133 46.7491 26.12C46.8291 26.2267 46.9891 26.3067 47.2291 26.36C47.4424 26.4133 47.5891 26.4 47.6691 26.32C47.7491 26.24 47.8424 26.1067 47.9491 25.92C48.0557 25.76 48.0824 25.64 48.0291 25.56C48.0024 25.48 47.9357 25.3733 47.8291 25.24ZM49.0291 27.92C48.8957 27.7867 48.7757 27.7467 48.6691 27.8C48.5624 27.8267 48.4291 27.88 48.2691 27.96C48.0824 28.0667 48.0024 28.2533 48.0291 28.52C48.0824 28.7333 48.2157 28.8667 48.4291 28.92C48.6691 28.9467 48.8424 28.8533 48.9491 28.64C49.0291 28.48 49.0957 28.36 49.1491 28.28C49.2024 28.1733 49.1624 28.0533 49.0291 27.92ZM46.5891 28.88C46.3224 28.8533 46.1624 28.92 46.1091 29.08C46.0557 29.2133 45.9624 29.3867 45.8291 29.6C45.6691 29.8667 45.6957 30.12 45.9091 30.36C46.1224 30.5733 46.3757 30.6267 46.6691 30.52C46.8557 30.4133 47.0024 30.32 47.1091 30.24C47.2157 30.1867 47.2557 30.04 47.2291 29.8C47.2024 29.5333 47.1491 29.3333 47.0691 29.2C47.0157 29.04 46.8557 28.9333 46.5891 28.88ZM44.3891 31.32C44.2824 31.08 44.1757 30.92 44.0691 30.84C43.9891 30.76 43.8291 30.72 43.5891 30.72C43.3491 30.7467 43.1891 30.8 43.1091 30.88C43.0291 30.9867 42.9624 31.16 42.9091 31.4C42.8291 31.6133 42.8024 31.7733 42.8291 31.88C42.8824 32.0133 43.0024 32.1467 43.1891 32.28C43.5091 32.4933 43.8291 32.48 44.1491 32.24C44.4424 31.9733 44.5224 31.6667 44.3891 31.32ZM46.4291 32.6C46.3224 32.28 46.0957 32.12 45.7491 32.12C45.5624 32.12 45.4557 32.1733 45.4291 32.28C45.4291 32.4133 45.4024 32.56 45.3491 32.72C45.2957 32.9067 45.3491 33.0533 45.5091 33.16C45.6691 33.2667 45.8291 33.2667 45.9891 33.16C46.1224 33.0533 46.2424 32.9733 46.3491 32.92C46.4557 32.8667 46.4824 32.76 46.4291 32.6ZM42.2291 33.84C42.0691 33.5733 41.9224 33.3867 41.7891 33.28C41.6557 33.1733 41.4424 33.16 41.1491 33.24C40.7757 33.32 40.4957 33.4133 40.3091 33.52C40.1224 33.6267 40.0157 33.8667 39.9891 34.24C39.9624 34.64 40.0291 34.9067 40.1891 35.04C40.3491 35.1733 40.6157 35.32 40.9891 35.48C41.3624 35.64 41.6557 35.7333 41.8691 35.76C42.0824 35.7867 42.3224 35.64 42.5891 35.32C42.8291 35.0267 42.8824 34.7867 42.7491 34.6C42.6157 34.4133 42.4424 34.16 42.2291 33.84Z" fill="black"/>
<path d="M61.4988 30C61.2054 30 60.9521 29.8933 60.7388 29.68C60.5254 29.4667 60.4188 29.2133 60.4188 28.92V3.08C60.4188 2.78667 60.5254 2.53333 60.7388 2.32C60.9521 2.10666 61.2054 2 61.4988 2H69.4988C69.7921 2 70.0454 2.10666 70.2588 2.32C70.4721 2.53333 70.5788 2.78667 70.5788 3.08V21.8H81.6588C81.9521 21.8 82.2054 21.9067 82.4188 22.12C82.6321 22.3333 82.7388 22.5867 82.7388 22.88V28.92C82.7388 29.2133 82.6321 29.4667 82.4188 29.68C82.2054 29.8933 81.9521 30 81.6588 30H61.4988ZM66.0588 4.44L65.7788 4.84V5.28L66.2588 5.2L66.4188 4.84L66.0588 4.44ZM62.9788 5.24C62.6854 5.13333 62.4454 5.04 62.2588 4.96C62.0988 4.85333 61.9254 4.93333 61.7388 5.2C61.5521 5.44 61.5254 5.64 61.6588 5.8C61.7921 5.93333 61.9521 6.13333 62.1388 6.4C62.2721 6.58667 62.3921 6.70667 62.4988 6.76C62.6321 6.81333 62.8188 6.8 63.0588 6.72C63.2721 6.64 63.4054 6.54667 63.4588 6.44C63.5121 6.33333 63.5388 6.16 63.5388 5.92C63.5388 5.70667 63.4988 5.56 63.4188 5.48C63.3388 5.37333 63.1921 5.29333 62.9788 5.24ZM65.7388 6.52L65.5388 6.08L65.0988 6.32L65.0588 6.76L65.4988 6.88L65.7388 6.52ZM67.0988 6.16C66.8588 6.13333 66.6988 6.2 66.6188 6.36C66.5654 6.46667 66.5521 6.56 66.5788 6.64C66.6321 6.69333 66.7121 6.76 66.8188 6.84C66.9788 6.97333 67.1388 7.01333 67.2988 6.96C67.4321 6.88 67.5254 6.81333 67.5788 6.76C67.6588 6.70667 67.6854 6.6 67.6588 6.44C67.6054 6.28 67.5388 6.2 67.4588 6.2C67.3788 6.2 67.2588 6.18667 67.0988 6.16ZM69.1788 7.12L68.5788 7.04L68.2588 7.52L68.6588 8L69.2188 7.76L69.1788 7.12ZM65.5388 9.44C65.2454 9.14667 64.9921 9.04 64.7788 9.12C64.5654 9.2 64.2721 9.33333 63.8988 9.52C63.5254 9.68 63.2321 9.82666 63.0188 9.96C62.8321 10.0667 62.7654 10.32 62.8188 10.72C62.8721 11.12 62.9921 11.3733 63.1788 11.48C63.3921 11.5867 63.7121 11.68 64.1388 11.76C64.4854 11.84 64.7254 11.8267 64.8588 11.72C64.9921 11.5867 65.1521 11.36 65.3388 11.04C65.5254 10.6933 65.6721 10.4133 65.7788 10.2C65.8854 9.98667 65.8054 9.73333 65.5388 9.44ZM68.2988 10.28C68.1921 10.1733 68.0988 10.1067 68.0188 10.08C67.9654 10.0267 67.8721 10.0267 67.7388 10.08C67.4721 10.2133 67.3521 10.4133 67.3788 10.68C67.4321 11 67.5921 11.1867 67.8588 11.24C68.0188 11.2667 68.1254 11.24 68.1788 11.16C68.2588 11.08 68.3388 10.9733 68.4188 10.84C68.4988 10.6533 68.4588 10.4667 68.2988 10.28ZM65.1788 13.4C64.9921 13.1867 64.8188 13.0933 64.6588 13.12C64.4988 13.12 64.2854 13.1867 64.0188 13.32C63.7521 13.4267 63.5388 13.5333 63.3788 13.64C63.2188 13.72 63.1521 13.92 63.1788 14.24C63.2054 14.5867 63.2721 14.84 63.3788 15C63.4854 15.16 63.7254 15.28 64.0987 15.36C64.4721 15.4667 64.7521 15.4933 64.9388 15.44C65.1521 15.3867 65.3654 15.1867 65.5788 14.84C65.7654 14.52 65.8054 14.28 65.6988 14.12C65.5921 13.9333 65.4188 13.6933 65.1788 13.4ZM69.6588 16.44L69.1788 16.24L68.8188 16.56L68.9788 17.08L69.4588 16.88L69.6588 16.44ZM64.7388 17.44C64.6854 17.1467 64.6054 16.9467 64.4988 16.84C64.3921 16.7333 64.1921 16.6667 63.8988 16.64C63.6321 16.6133 63.4588 16.68 63.3788 16.84C63.3254 16.9733 63.2454 17.16 63.1388 17.4C63.0588 17.6133 63.0321 17.7733 63.0588 17.88C63.0854 17.9867 63.1788 18.12 63.3388 18.28C63.4721 18.3867 63.5921 18.4133 63.6988 18.36C63.8054 18.3067 63.9388 18.2267 64.0987 18.12C64.2854 17.9867 64.4454 17.9067 64.5788 17.88C64.7388 17.8267 64.7921 17.68 64.7388 17.44ZM66.7388 19.36L66.3788 19.32L66.2588 19.64L66.4988 20.08L66.8188 19.72L66.7388 19.36ZM62.5788 20.4L62.3388 20L61.8988 20.24L61.8588 20.76L62.3388 20.72L62.5788 20.4ZM68.6188 22.76C68.5654 22.28 68.3921 22.0133 68.0988 21.96C67.8321 21.9067 67.4588 21.8267 66.9788 21.72C66.5521 21.6133 66.2188 21.56 65.9788 21.56C65.7388 21.56 65.4988 21.7467 65.2588 22.12C65.0188 22.5467 64.9121 22.8933 64.9388 23.16C64.9654 23.4267 65.1388 23.7333 65.4588 24.08C65.7788 24.4267 66.0588 24.6133 66.2988 24.64C66.5654 24.6667 66.9121 24.5867 67.3388 24.4C67.8188 24.1867 68.1654 23.9867 68.3788 23.8C68.5921 23.6133 68.6721 23.2667 68.6188 22.76ZM78.2988 24.44C78.1121 23.9333 77.8854 23.64 77.6188 23.56C77.3521 23.4533 76.9521 23.4133 76.4188 23.44C75.8321 23.4667 75.3788 23.52 75.0588 23.6C74.7388 23.6533 74.4988 23.9733 74.3388 24.56C74.1788 25.0933 74.2454 25.44 74.5388 25.6C74.8588 25.76 75.2588 25.9867 75.7388 26.28C76.1654 26.5733 76.4988 26.8 76.7388 26.96C77.0054 27.0933 77.3388 27 77.7388 26.68C78.1921 26.3067 78.4454 25.9733 78.4988 25.68C78.5788 25.3867 78.5121 24.9733 78.2988 24.44ZM71.2988 23.84C71.0321 23.6533 70.7654 23.68 70.4988 23.92C70.3121 24.0533 70.1921 24.1733 70.1388 24.28C70.0854 24.36 70.0988 24.4933 70.1788 24.68C70.2588 24.8933 70.3388 25.0267 70.4188 25.08C70.5254 25.1333 70.6988 25.16 70.9388 25.16C71.1254 25.16 71.2321 25.12 71.2588 25.04C71.3121 24.9333 71.3654 24.7867 71.4188 24.6C71.4721 24.4133 71.4988 24.2667 71.4988 24.16C71.5254 24.0533 71.4588 23.9467 71.2988 23.84ZM73.4988 24.16C73.3121 23.9467 73.0854 23.8933 72.8188 24C72.6854 24.0533 72.6188 24.1333 72.6188 24.24C72.6188 24.32 72.6188 24.44 72.6188 24.6C72.6454 24.84 72.7521 24.9867 72.9388 25.04C73.1254 25.0667 73.2721 25.1067 73.3788 25.16C73.5121 25.2133 73.6321 25.16 73.7388 25C73.8454 24.8133 73.8721 24.6667 73.8188 24.56C73.7654 24.4533 73.6588 24.32 73.4988 24.16ZM80.8588 24.52L80.6588 24.24L80.2587 24.4L80.4188 24.72L80.6988 24.8L80.8588 24.52ZM81.0588 25.76C81.0054 25.6 80.9254 25.52 80.8187 25.52C80.7388 25.52 80.6321 25.52 80.4988 25.52C80.3121 25.52 80.1788 25.6267 80.0988 25.84C80.0721 26 80.1388 26.1333 80.2988 26.24C80.4321 26.3467 80.5254 26.4267 80.5788 26.48C80.6588 26.5333 80.7521 26.52 80.8588 26.44C81.0988 26.2533 81.1654 26.0267 81.0588 25.76ZM66.9388 26C66.7254 25.84 66.5521 25.76 66.4188 25.76C66.2854 25.7333 66.0988 25.7867 65.8588 25.92C65.6454 26.08 65.5254 26.24 65.4988 26.4C65.4988 26.5333 65.5388 26.72 65.6188 26.96C65.6721 27.1733 65.7654 27.2933 65.8988 27.32C66.0321 27.32 66.2054 27.32 66.4188 27.32C66.6321 27.32 66.8054 27.32 66.9388 27.32C67.0721 27.32 67.1788 27.2133 67.2588 27C67.3388 26.76 67.3521 26.5733 67.2988 26.44C67.2721 26.3067 67.1521 26.16 66.9388 26ZM70.3388 26.6C70.1788 26.36 70.0321 26.2267 69.8988 26.2C69.7654 26.1733 69.5654 26.2 69.2988 26.28C69.0321 26.36 68.8321 26.4533 68.6988 26.56C68.5921 26.64 68.5388 26.8133 68.5388 27.08C68.5388 27.3467 68.6054 27.52 68.7388 27.6C68.8721 27.6533 69.0588 27.72 69.2988 27.8C69.5121 27.88 69.6854 27.9333 69.8188 27.96C69.9521 27.96 70.0854 27.8667 70.2188 27.68C70.4054 27.4667 70.5121 27.2933 70.5388 27.16C70.5654 27 70.4988 26.8133 70.3388 26.6ZM73.4588 26.36C73.2188 26.2533 73.0188 26.3067 72.8588 26.52C72.6721 26.7333 72.6454 26.9333 72.7788 27.12C72.8588 27.2533 72.9388 27.32 73.0188 27.32C73.0988 27.32 73.2188 27.3067 73.3788 27.28C73.5921 27.2 73.7121 27.0667 73.7388 26.88C73.7654 26.6133 73.6721 26.44 73.4588 26.36ZM80.5388 27.48L80.2988 27.28L79.9388 27.44L80.1388 27.8H80.4988L80.5388 27.48ZM67.8588 27.96L67.3388 28.04V28.48L67.6588 28.72L67.8588 28.4V27.96ZM86.3378 7C86.0445 7 85.7911 6.89333 85.5778 6.68C85.3645 6.46667 85.2578 6.21333 85.2578 5.92V1.08C85.2578 0.786665 85.3645 0.533332 85.5778 0.319998C85.7911 0.106664 86.0445 -2.38419e-06 86.3378 -2.38419e-06H93.0978C93.3911 -2.38419e-06 93.6445 0.106664 93.8578 0.319998C94.0711 0.533332 94.1778 0.786665 94.1778 1.08V5.92C94.1778 6.21333 94.0711 6.46667 93.8578 6.68C93.6445 6.89333 93.3911 7 93.0978 7H86.3378ZM88.3378 2.44L88.0178 2.64L88.0978 3.08L88.6178 3.16L88.7778 2.64L88.3378 2.44ZM89.8578 3.48L89.5778 3.36L89.1778 3.52L89.4178 3.96L89.7778 3.76L89.8578 3.48ZM87.3778 4L86.8978 4.12V4.48L87.1778 4.72L87.5378 4.48L87.3778 4ZM91.5778 4.2C91.4178 4.2 91.2978 4.2 91.2178 4.2C91.1378 4.2 91.0711 4.26666 91.0178 4.4C90.9645 4.53333 90.9645 4.64 91.0178 4.72C91.0711 4.77333 91.1511 4.84 91.2578 4.92C91.3645 5.02667 91.4578 5.12 91.5378 5.2C91.6178 5.25333 91.7245 5.24 91.8578 5.16C92.0978 5 92.1911 4.77333 92.1378 4.48C92.0845 4.32 92.0178 4.24 91.9378 4.24C91.8578 4.24 91.7378 4.22666 91.5778 4.2ZM86.1378 30C85.8445 30 85.5911 29.8933 85.3778 29.68C85.1645 29.4667 85.0578 29.2133 85.0578 28.92V10.28C85.0578 9.98667 85.1645 9.73333 85.3778 9.52C85.5911 9.30667 85.8445 9.2 86.1378 9.2H93.2978C93.5911 9.2 93.8445 9.30667 94.0578 9.52C94.2711 9.73333 94.3778 9.98667 94.3778 10.28V28.92C94.3778 29.2133 94.2711 29.4667 94.0578 29.68C93.8445 29.8933 93.5911 30 93.2978 30H86.1378ZM89.2178 11.4L88.8178 11.32L88.6578 11.76L89.0578 12.12L89.4978 11.8L89.2178 11.4ZM92.8978 12.36C92.8445 12.0133 92.6711 11.8133 92.3778 11.76C92.2178 11.7333 92.1111 11.76 92.0578 11.84C92.0045 11.92 91.9378 12.04 91.8578 12.2C91.7245 12.44 91.7245 12.64 91.8578 12.8C92.0711 13.0133 92.2845 13.0667 92.4978 12.96C92.6578 12.88 92.7645 12.8133 92.8178 12.76C92.8978 12.68 92.9245 12.5467 92.8978 12.36ZM87.6578 12.72L87.3778 12.64L87.0178 12.84L87.2978 13.2L87.6978 13.12L87.6578 12.72ZM91.2178 13.6C90.9511 13.3333 90.7111 13.24 90.4978 13.32C90.3111 13.4 90.0578 13.5067 89.7378 13.64C89.4445 13.7733 89.2311 13.9067 89.0978 14.04C88.9645 14.1467 88.9111 14.36 88.9378 14.68C88.9911 15.0533 89.0711 15.32 89.1778 15.48C89.2845 15.6133 89.5245 15.7067 89.8978 15.76C90.2711 15.84 90.5511 15.8533 90.7378 15.8C90.9245 15.7467 91.1111 15.56 91.2978 15.24C91.5111 14.8933 91.6178 14.6133 91.6178 14.4C91.6178 14.16 91.4845 13.8933 91.2178 13.6ZM93.1778 15.6C93.0711 15.52 92.9911 15.5067 92.9378 15.56C92.8845 15.6133 92.8178 15.68 92.7378 15.76C92.6311 15.84 92.5511 15.9067 92.4978 15.96C92.4445 16.0133 92.4445 16.0933 92.4978 16.2C92.6311 16.4667 92.8045 16.5867 93.0178 16.56C93.2311 16.5333 93.3645 16.3733 93.4178 16.08C93.4445 15.8667 93.3645 15.7067 93.1778 15.6ZM87.6978 16.36C87.6445 16.0133 87.4711 15.8133 87.1778 15.76C86.9911 15.7333 86.8578 15.76 86.7778 15.84C86.7245 15.8933 86.6578 16 86.5778 16.16C86.4978 16.2933 86.4845 16.4 86.5378 16.48C86.5911 16.5333 86.6711 16.6133 86.7778 16.72C86.8578 16.8267 86.9245 16.9067 86.9778 16.96C87.0578 16.9867 87.1511 16.9733 87.2578 16.92C87.4178 16.84 87.5378 16.7733 87.6178 16.72C87.6978 16.64 87.7245 16.52 87.6978 16.36ZM91.2978 17.08L91.0178 16.88L90.6978 16.96L90.7378 17.36L91.1378 17.44L91.2978 17.08ZM90.2978 18.88C90.1911 18.72 90.0845 18.6533 89.9778 18.68C89.8711 18.7067 89.7245 18.76 89.5378 18.84C89.3245 18.8933 89.1511 18.9333 89.0178 18.96C88.9111 18.9867 88.8578 19.1067 88.8578 19.32C88.8578 19.56 88.8978 19.7333 88.9778 19.84C89.0578 19.92 89.2178 20 89.4578 20.08C89.6445 20.1333 89.7645 20.12 89.8178 20.04C89.8978 19.9333 90.0045 19.8 90.1378 19.64C90.2445 19.48 90.3245 19.36 90.3778 19.28C90.4578 19.1733 90.4311 19.04 90.2978 18.88ZM93.4578 19.44C93.3511 19.2267 93.2311 19.1067 93.0978 19.08C92.9911 19.0533 92.8311 19.0533 92.6178 19.08C92.4045 19.1067 92.2578 19.16 92.1778 19.24C92.0978 19.32 92.0311 19.4667 91.9778 19.68C91.9511 19.8933 91.9645 20.0533 92.0178 20.16C92.0978 20.24 92.2311 20.3333 92.4178 20.44C92.7111 20.6 92.9911 20.56 93.2578 20.32C93.4178 20.16 93.5111 20.0267 93.5378 19.92C93.5911 19.7867 93.5645 19.6267 93.4578 19.44ZM86.5378 19.92L86.1778 19.64L85.8578 20.08L86.1778 20.4L86.5378 20.28V19.92ZM89.4178 21.32C89.3111 21.0533 89.1645 20.9333 88.9778 20.96C88.6845 20.9867 88.5111 21.12 88.4578 21.36C88.4311 21.5733 88.5378 21.7467 88.7778 21.88C88.9911 22.0133 89.1911 22.0133 89.3778 21.88C89.5111 21.7467 89.5245 21.56 89.4178 21.32ZM86.8178 21.96C86.6845 21.8533 86.5778 21.7733 86.4978 21.72C86.4178 21.64 86.2978 21.6533 86.1378 21.76C86.0045 21.8667 85.9511 21.9733 85.9778 22.08C86.0045 22.16 86.0578 22.2933 86.1378 22.48C86.1911 22.64 86.2311 22.76 86.2578 22.84C86.3111 22.92 86.4178 22.96 86.5778 22.96C86.8178 22.96 86.9911 22.9467 87.0978 22.92C87.2311 22.8933 87.3245 22.7733 87.3778 22.56C87.4311 22.3733 87.3911 22.2533 87.2578 22.2C87.1511 22.1467 87.0045 22.0667 86.8178 21.96ZM92.7378 22.48C92.6578 22.1867 92.5511 21.9867 92.4178 21.88C92.2845 21.7733 92.0578 21.7067 91.7378 21.68C91.4445 21.6533 91.2445 21.7067 91.1378 21.84C91.0311 21.9467 90.9245 22.1333 90.8178 22.4C90.6845 22.72 90.6045 22.9733 90.5778 23.16C90.5778 23.32 90.6978 23.4933 90.9378 23.68C91.2045 23.92 91.4311 24.04 91.6178 24.04C91.8045 24.04 92.0445 23.9467 92.3378 23.76C92.6311 23.5733 92.7911 23.4 92.8178 23.24C92.8445 23.0533 92.8178 22.8 92.7378 22.48ZM88.5378 23.68L88.0978 23.64V24.04L88.3378 24.36L88.5778 24.04L88.5378 23.68ZM86.3778 23.84L86.1378 24.16V24.48L86.4978 24.6L86.7378 24.2L86.3778 23.84ZM91.9378 25.24L91.6578 24.84L91.2978 25.2L91.4178 25.64L91.8578 25.6L91.9378 25.24ZM89.7778 25.6C89.6178 25.3333 89.4711 25.1467 89.3378 25.04C89.2045 24.9333 88.9778 24.92 88.6578 25C88.3645 25.0533 88.1911 25.16 88.1378 25.32C88.0845 25.48 88.0445 25.72 88.0178 26.04C87.9911 26.3067 88.0178 26.4933 88.0978 26.6C88.2045 26.7067 88.3778 26.8 88.6178 26.88C88.8845 27.0133 89.0978 27.1067 89.2578 27.16C89.4178 27.2133 89.6045 27.12 89.8178 26.88C90.0311 26.64 90.1245 26.44 90.0978 26.28C90.0711 26.0933 89.9645 25.8667 89.7778 25.6ZM93.4178 25.16L93.1778 25L92.8178 25.2L93.0578 25.48L93.4178 25.56V25.16ZM91.6978 26.36C91.5111 26.3333 91.3778 26.3733 91.2978 26.48C91.2445 26.5867 91.1778 26.72 91.0978 26.88C91.0178 27.0133 90.9911 27.12 91.0178 27.2C91.0711 27.28 91.1511 27.3733 91.2578 27.48C91.3911 27.5867 91.4845 27.68 91.5378 27.76C91.6178 27.84 91.7245 27.84 91.8578 27.76C92.1511 27.6267 92.2711 27.4 92.2178 27.08C92.1911 26.8667 92.1511 26.7067 92.0978 26.6C92.0445 26.4933 91.9111 26.4133 91.6978 26.36ZM112.868 30.4C111.481 30.4 110.308 30.1867 109.348 29.76C108.388 29.3067 107.588 28.72 106.948 28V28.92C106.948 29.2133 106.841 29.4667 106.628 29.68C106.414 29.8933 106.161 30 105.868 30H99.0675C98.7742 30 98.5208 29.8933 98.3075 29.68C98.0942 29.4667 97.9875 29.2133 97.9875 28.92V2.68C97.9875 2.38667 98.0942 2.13333 98.3075 1.92C98.5208 1.70667 98.7742 1.6 99.0675 1.6H106.467C106.761 1.6 107.014 1.70667 107.228 1.92C107.441 2.13333 107.548 2.38667 107.548 2.68V10.68C108.188 10.0933 108.948 9.64 109.828 9.32C110.734 8.97333 111.748 8.8 112.868 8.8C114.414 8.8 115.814 9.13333 117.068 9.8C118.321 10.4667 119.321 11.48 120.068 12.84C120.841 14.1733 121.268 15.8933 121.348 18C121.374 18.5867 121.388 19.1067 121.388 19.56C121.388 20.0133 121.374 20.5467 121.348 21.16C121.268 23.3733 120.841 25.16 120.068 26.52C119.294 27.88 118.281 28.8667 117.028 29.48C115.801 30.0933 114.414 30.4 112.868 30.4ZM105.148 3.6H104.828L104.908 3.92L105.188 4.16L105.148 3.6ZM105.068 6.32C104.934 5.49333 104.721 4.92 104.428 4.6C104.134 4.28 103.574 4.06667 102.748 3.96C102.268 3.88 101.934 3.93333 101.748 4.12C101.561 4.30667 101.414 4.57333 101.308 4.92C101.228 5.26667 101.081 5.65333 100.868 6.08C100.654 6.50667 100.574 6.84 100.628 7.08C100.681 7.32 100.881 7.61333 101.228 7.96C101.708 8.41333 102.068 8.8 102.308 9.12C102.574 9.41333 103.001 9.4 103.588 9.08C104.281 8.73333 104.734 8.38667 104.948 8.04C105.161 7.66667 105.201 7.09333 105.068 6.32ZM106.188 10.24C105.841 9.86667 105.534 9.64 105.268 9.56C105.001 9.45333 104.641 9.52 104.188 9.76C103.708 10 103.401 10.24 103.268 10.48C103.134 10.72 103.094 11.1067 103.148 11.64C103.228 12.0933 103.401 12.3333 103.668 12.36C103.961 12.36 104.334 12.4 104.788 12.48C105.241 12.56 105.601 12.6533 105.868 12.76C106.161 12.84 106.414 12.68 106.628 12.28C106.894 11.8267 106.974 11.4667 106.868 11.2C106.788 10.9333 106.561 10.6133 106.188 10.24ZM100.788 10.84C100.601 10.6 100.454 10.4 100.348 10.24C100.268 10.08 100.081 10.04 99.7875 10.12C99.4942 10.2267 99.3342 10.3733 99.3075 10.56C99.3075 10.72 99.3075 10.96 99.3075 11.28C99.3075 11.5467 99.3342 11.7467 99.3875 11.88C99.4408 11.9867 99.5875 12.0933 99.8275 12.2C100.121 12.28 100.348 12.32 100.508 12.32C100.668 12.2933 100.841 12.16 101.028 11.92C101.188 11.7067 101.228 11.5333 101.148 11.4C101.068 11.2667 100.948 11.08 100.788 10.84ZM114.748 10.36C114.454 10.2267 114.241 10.2133 114.108 10.32C113.974 10.4 113.801 10.56 113.588 10.8C113.401 10.9867 113.308 11.1467 113.308 11.28C113.334 11.4133 113.414 11.5867 113.548 11.8C113.708 12.0933 113.828 12.32 113.908 12.48C114.014 12.64 114.214 12.68 114.508 12.6C114.881 12.5467 115.121 12.4533 115.228 12.32C115.334 12.16 115.414 11.8933 115.468 11.52C115.494 11.1733 115.454 10.9333 115.348 10.8C115.268 10.64 115.068 10.4933 114.748 10.36ZM108.748 11.92C108.588 11.8133 108.454 11.8 108.348 11.88C108.241 11.9333 108.094 12.0133 107.908 12.12C107.694 12.28 107.494 12.3867 107.308 12.44C107.121 12.4933 107.068 12.6533 107.148 12.92C107.228 13.2133 107.348 13.3867 107.508 13.44C107.668 13.4933 107.894 13.52 108.188 13.52C108.454 13.52 108.628 13.48 108.708 13.4C108.814 13.2933 108.908 13.12 108.988 12.88C109.068 12.64 109.094 12.4667 109.068 12.36C109.041 12.2267 108.934 12.08 108.748 11.92ZM101.348 13.72C101.108 13.56 100.908 13.4667 100.748 13.44C100.588 13.4133 100.401 13.48 100.188 13.64C99.9475 13.8 99.8408 13.96 99.8675 14.12C99.8942 14.2533 99.9475 14.4533 100.028 14.72C100.108 14.96 100.188 15.1333 100.268 15.24C100.374 15.32 100.548 15.36 100.788 15.36C101.054 15.36 101.241 15.3333 101.348 15.28C101.481 15.2 101.588 15.0267 101.668 14.76C101.748 14.4933 101.761 14.2933 101.708 14.16C101.681 14.0267 101.561 13.88 101.348 13.72ZM115.908 13.68C115.721 13.5733 115.574 13.5067 115.468 13.48C115.361 13.4533 115.228 13.5067 115.068 13.64C114.881 13.8 114.761 13.9467 114.708 14.08C114.681 14.1867 114.721 14.3467 114.828 14.56C114.908 14.7733 115.001 14.8933 115.108 14.92C115.241 14.9467 115.414 14.9467 115.628 14.92C115.841 14.8933 115.974 14.84 116.028 14.76C116.081 14.68 116.134 14.5467 116.188 14.36C116.241 14.0667 116.148 13.84 115.908 13.68ZM111.348 14.28C111.268 13.9067 111.054 13.6933 110.708 13.64C110.494 13.6133 110.334 13.64 110.228 13.72C110.148 13.7733 110.068 13.9067 109.988 14.12C109.881 14.3067 109.814 14.4667 109.788 14.6C109.788 14.7067 109.868 14.8267 110.028 14.96C110.188 15.12 110.321 15.2133 110.428 15.24C110.561 15.24 110.734 15.1867 110.948 15.08C111.268 14.8933 111.401 14.6267 111.348 14.28ZM106.948 14.08L106.508 13.84L106.148 14L106.228 14.44H106.628L106.948 14.08ZM113.908 15.84C113.854 15.6 113.761 15.4667 113.628 15.44C113.494 15.4133 113.308 15.3733 113.068 15.32C112.774 15.2667 112.561 15.3867 112.428 15.68C112.321 15.8667 112.254 16.0133 112.228 16.12C112.201 16.2267 112.254 16.3467 112.388 16.48C112.548 16.64 112.681 16.7067 112.788 16.68C112.894 16.6533 113.041 16.5867 113.228 16.48C113.441 16.4 113.614 16.3333 113.748 16.28C113.881 16.2267 113.934 16.08 113.908 15.84ZM109.548 23.24C110.294 23.24 110.788 23.04 111.028 22.64C111.294 22.2133 111.468 21.64 111.548 20.92C111.628 20.04 111.628 19.16 111.548 18.28C111.468 17.56 111.294 17 111.028 16.6C110.788 16.1733 110.294 15.96 109.548 15.96C108.881 15.96 108.388 16.1333 108.068 16.48C107.774 16.8267 107.601 17.32 107.548 17.96C107.521 18.5467 107.508 19.04 107.508 19.44C107.508 19.8133 107.521 20.3067 107.548 20.92C107.601 21.64 107.761 22.2133 108.028 22.64C108.294 23.04 108.801 23.24 109.548 23.24ZM119.068 16.8C118.614 16.4 118.228 16.1867 117.908 16.16C117.614 16.1067 117.214 16.2267 116.708 16.52C116.254 16.7867 116.041 17.0667 116.068 17.36C116.094 17.6533 116.161 18.0533 116.268 18.56C116.321 18.9333 116.441 19.16 116.628 19.24C116.841 19.2933 117.148 19.3467 117.548 19.4C117.868 19.4267 118.094 19.4 118.227 19.32C118.388 19.24 118.534 19.0533 118.668 18.76C118.881 18.3067 119.094 17.9467 119.308 17.68C119.521 17.4133 119.441 17.12 119.068 16.8ZM103.228 16.92C103.148 16.6267 103.014 16.4533 102.828 16.4C102.641 16.3467 102.388 16.32 102.067 16.32C101.774 16.32 101.574 16.3733 101.467 16.48C101.361 16.56 101.254 16.7467 101.148 17.04C101.068 17.28 101.054 17.48 101.108 17.64C101.161 17.7733 101.294 17.92 101.508 18.08C101.721 18.2133 101.894 18.28 102.028 18.28C102.161 18.2533 102.334 18.16 102.548 18C102.814 17.8133 103.014 17.6667 103.148 17.56C103.308 17.4533 103.334 17.24 103.228 16.92ZM106.108 16.96L105.788 16.6L105.468 16.88L105.508 17.2L105.868 17.36L106.108 16.96ZM114.428 18.04C114.108 17.96 113.881 17.96 113.748 18.04C113.614 18.12 113.454 18.2933 113.268 18.56C113.108 18.8 113.028 19 113.028 19.16C113.054 19.2933 113.161 19.48 113.348 19.72C113.508 19.9067 113.654 19.9733 113.788 19.92C113.921 19.84 114.094 19.76 114.308 19.68C114.548 19.6 114.734 19.5467 114.868 19.52C115.001 19.4667 115.068 19.32 115.068 19.08C115.068 18.7867 115.028 18.56 114.948 18.4C114.894 18.24 114.721 18.12 114.428 18.04ZM105.228 19.56C104.988 19.32 104.774 19.1467 104.588 19.04C104.428 18.9333 104.214 18.9733 103.948 19.16C103.628 19.3467 103.481 19.5333 103.508 19.72C103.534 19.9067 103.588 20.1733 103.668 20.52C103.721 20.7867 103.814 20.9467 103.948 21C104.081 21.0533 104.294 21.0933 104.588 21.12C104.828 21.1467 105.001 21.1333 105.108 21.08C105.241 21 105.348 20.84 105.428 20.6C105.534 20.36 105.574 20.1733 105.548 20.04C105.548 19.88 105.441 19.72 105.228 19.56ZM101.908 22.4C101.854 22.08 101.801 21.8267 101.748 21.64C101.721 21.4533 101.548 21.3333 101.228 21.28C100.908 21.2533 100.694 21.32 100.588 21.48C100.481 21.6133 100.348 21.8267 100.188 22.12C100.054 22.4133 99.9875 22.64 99.9875 22.8C99.9875 22.96 100.094 23.1333 100.308 23.32C100.574 23.5867 100.788 23.7733 100.948 23.88C101.134 23.9867 101.388 23.96 101.708 23.8C102.028 23.64 102.148 23.4533 102.067 23.24C102.014 23.0267 101.961 22.7467 101.908 22.4ZM119.148 21.84C118.828 21.7067 118.574 21.6533 118.388 21.68C118.228 21.7067 118.041 21.8533 117.828 22.12C117.588 22.44 117.401 22.7067 117.268 22.92C117.134 23.1067 117.174 23.3733 117.388 23.72C117.654 24.0933 117.894 24.32 118.108 24.4C118.348 24.4533 118.694 24.4267 119.148 24.32C119.548 24.2133 119.801 24.0667 119.908 23.88C120.014 23.6667 120.081 23.3467 120.108 22.92C120.134 22.5467 120.054 22.3067 119.868 22.2C119.708 22.0933 119.468 21.9733 119.148 21.84ZM116.348 24.28C115.948 23.5333 115.534 23.08 115.108 22.92C114.708 22.76 114.094 22.7467 113.268 22.88C112.521 23.0133 112.068 23.28 111.908 23.68C111.748 24.0533 111.628 24.6133 111.548 25.36C111.468 25.92 111.388 26.4 111.308 26.8C111.254 27.1733 111.281 27.5067 111.388 27.8C111.521 28.0667 111.841 28.32 112.348 28.56C112.828 28.8 113.214 28.88 113.508 28.8C113.801 28.6933 114.081 28.4933 114.348 28.2C114.614 27.9067 114.934 27.5733 115.308 27.2C115.841 26.64 116.241 26.1867 116.508 25.84C116.774 25.4933 116.721 24.9733 116.348 24.28ZM100.468 24.88L99.9875 24.56L99.7075 24.96L99.8275 25.36L100.348 25.4L100.468 24.88ZM106.308 25.96C106.254 25.8267 106.214 25.7067 106.188 25.6C106.161 25.4933 106.068 25.44 105.908 25.44C105.748 25.44 105.654 25.4933 105.628 25.6C105.601 25.7067 105.561 25.84 105.508 26C105.481 26.16 105.454 26.2933 105.428 26.4C105.401 26.48 105.454 26.56 105.588 26.64C105.721 26.7467 105.828 26.7733 105.908 26.72C105.988 26.64 106.094 26.56 106.228 26.48C106.361 26.3467 106.388 26.1733 106.308 25.96ZM118.548 26.44L118.148 26.24L117.628 26.52L117.948 27.04L118.508 26.92L118.548 26.44ZM100.228 26.6C100.041 26.6 99.8808 26.5867 99.7475 26.56C99.6408 26.5333 99.5475 26.6133 99.4675 26.8C99.4142 26.9867 99.4275 27.12 99.5075 27.2C99.5875 27.2533 99.7075 27.3467 99.8675 27.48C100.001 27.5867 100.108 27.6667 100.188 27.72C100.268 27.7467 100.374 27.72 100.508 27.64C100.801 27.4533 100.908 27.2133 100.828 26.92C100.801 26.76 100.734 26.6667 100.628 26.64C100.521 26.6133 100.388 26.6 100.228 26.6ZM105.788 28.4L105.428 28.28L105.388 28.68L105.708 28.92L105.988 28.64L105.788 28.4ZM125.513 30C125.219 30 124.966 29.8933 124.753 29.68C124.539 29.4667 124.433 29.2133 124.433 28.92V10.28C124.433 9.98667 124.539 9.73333 124.753 9.52C124.966 9.30667 125.219 9.2 125.513 9.2H132.513C132.806 9.2 133.059 9.30667 133.273 9.52C133.486 9.73333 133.593 9.98667 133.593 10.28V11.68C134.446 10.9333 135.393 10.3333 136.433 9.88C137.499 9.42667 138.633 9.2 139.833 9.2H141.753C142.046 9.2 142.299 9.30667 142.513 9.52C142.726 9.73333 142.833 9.98667 142.833 10.28V16.52C142.833 16.8133 142.726 17.0667 142.513 17.28C142.299 17.4933 142.046 17.6 141.753 17.6H136.593C134.993 17.6 134.193 18.4 134.193 20V28.92C134.193 29.2133 134.086 29.4667 133.873 29.68C133.659 29.8933 133.406 30 133.113 30H125.513ZM131.313 11.44C131.206 11.1733 131.086 10.9867 130.953 10.88C130.846 10.7733 130.646 10.72 130.353 10.72C130.006 10.72 129.739 10.7467 129.553 10.8C129.393 10.8533 129.259 11.04 129.153 11.36C129.019 11.76 128.939 12.08 128.913 12.32C128.913 12.5333 129.086 12.7733 129.433 13.04C129.779 13.28 130.059 13.3733 130.273 13.32C130.513 13.2667 130.806 13.12 131.153 12.88C131.446 12.6667 131.566 12.4667 131.513 12.28C131.486 12.0667 131.419 11.7867 131.313 11.44ZM137.793 11.04L137.473 10.96L137.153 11.08L137.313 11.4L137.713 11.44L137.793 11.04ZM136.433 12.04C135.846 11.8 135.393 11.7467 135.073 11.88C134.753 11.9867 134.393 12.2933 133.993 12.8C133.593 13.28 133.379 13.68 133.353 14C133.353 14.32 133.526 14.7467 133.873 15.28C134.193 15.8133 134.499 16.1467 134.793 16.28C135.113 16.3867 135.579 16.36 136.193 16.2C136.779 16.04 137.139 15.8267 137.273 15.56C137.433 15.2667 137.526 14.8267 137.553 14.24C137.579 13.6 137.539 13.1333 137.433 12.84C137.353 12.52 137.019 12.2533 136.433 12.04ZM126.273 13.16L125.993 13.36L126.073 13.68L126.473 13.72L126.633 13.36L126.273 13.16ZM141.433 14.44C141.379 14.2 141.299 14.0533 141.193 14C141.086 13.92 140.899 13.8533 140.633 13.8C140.339 13.7733 140.099 13.7467 139.913 13.72C139.753 13.6933 139.606 13.8133 139.473 14.08C139.313 14.3733 139.246 14.6133 139.273 14.8C139.299 14.96 139.433 15.1733 139.673 15.44C139.913 15.6533 140.113 15.76 140.273 15.76C140.459 15.7333 140.686 15.64 140.953 15.48C141.219 15.3467 141.366 15.2133 141.393 15.08C141.446 14.9467 141.459 14.7333 141.433 14.44ZM130.113 15.76C130.059 15.2533 129.899 14.9467 129.633 14.84C129.393 14.7333 129.033 14.6267 128.553 14.52C127.993 14.3867 127.539 14.2667 127.193 14.16C126.873 14.0533 126.566 14.2533 126.273 14.76C125.979 15.2667 125.926 15.6533 126.113 15.92C126.326 16.1867 126.619 16.5467 126.993 17C127.366 17.4267 127.673 17.7333 127.913 17.92C128.153 18.08 128.526 18.0533 129.033 17.84C129.566 17.6 129.886 17.3467 129.993 17.08C130.126 16.7867 130.166 16.3467 130.113 15.76ZM133.553 16.84C133.366 16.5733 133.193 16.4 133.033 16.32C132.899 16.24 132.673 16.24 132.353 16.32C132.059 16.4 131.886 16.5333 131.833 16.72C131.806 16.88 131.793 17.1067 131.793 17.4C131.793 17.6933 131.819 17.9067 131.873 18.04C131.926 18.1733 132.073 18.28 132.313 18.36C132.606 18.4667 132.819 18.5067 132.953 18.48C133.113 18.4267 133.286 18.28 133.473 18.04C133.659 17.8 133.766 17.6 133.793 17.44C133.819 17.28 133.739 17.08 133.553 16.84ZM126.273 18.24C126.086 18.1867 125.966 18.2133 125.913 18.32C125.859 18.4 125.779 18.5067 125.673 18.64C125.593 18.7733 125.526 18.88 125.473 18.96C125.446 19.0133 125.486 19.1067 125.593 19.24C125.753 19.48 125.953 19.56 126.193 19.48C126.486 19.4 126.633 19.2133 126.633 18.92C126.633 18.7333 126.619 18.5867 126.593 18.48C126.566 18.3733 126.459 18.2933 126.273 18.24ZM128.513 19.2C128.379 19.0933 128.259 19.0133 128.153 18.96C128.073 18.88 127.939 18.8933 127.753 19C127.593 19.1067 127.513 19.2133 127.513 19.32C127.539 19.4267 127.566 19.5733 127.593 19.76C127.646 19.9467 127.686 20.0933 127.713 20.2C127.766 20.28 127.886 20.3333 128.073 20.36C128.259 20.3867 128.379 20.36 128.433 20.28C128.486 20.1733 128.553 20.0267 128.633 19.84C128.739 19.5733 128.699 19.36 128.513 19.2ZM130.953 19.2C130.846 19.0933 130.753 19.0267 130.673 19C130.593 18.9467 130.486 18.96 130.353 19.04C130.193 19.12 130.099 19.2 130.073 19.28C130.073 19.36 130.086 19.48 130.113 19.64C130.166 19.88 130.326 20.0133 130.593 20.04C130.753 20.0667 130.873 20.08 130.953 20.08C131.059 20.0533 131.153 19.9733 131.233 19.84C131.286 19.68 131.286 19.5733 131.233 19.52C131.179 19.44 131.086 19.3333 130.953 19.2ZM132.953 20.16C132.953 20 132.899 19.9067 132.793 19.88C132.713 19.8267 132.593 19.7733 132.433 19.72C132.273 19.6933 132.139 19.6667 132.033 19.64C131.953 19.6133 131.873 19.6667 131.793 19.8C131.686 19.9333 131.646 20.0533 131.673 20.16C131.699 20.24 131.766 20.3467 131.873 20.48C131.979 20.64 132.073 20.7467 132.153 20.8C132.233 20.8267 132.353 20.8133 132.513 20.76C132.806 20.6533 132.953 20.4533 132.953 20.16ZM127.153 21.6C127.126 21.44 126.993 21.3467 126.753 21.32C126.539 21.2933 126.393 21.3467 126.313 21.48C126.233 21.6667 126.259 21.84 126.393 22C126.579 22.16 126.766 22.2 126.953 22.12C127.113 22.0133 127.179 21.84 127.153 21.6ZM129.473 22.16C128.966 22 128.579 21.9733 128.313 22.08C128.046 22.16 127.766 22.4267 127.473 22.88C127.153 23.3067 126.966 23.6667 126.913 23.96C126.886 24.2533 127.033 24.6133 127.353 25.04C127.646 25.44 127.926 25.5867 128.193 25.48C128.459 25.3467 128.819 25.2133 129.273 25.08C129.673 24.9467 129.966 24.8267 130.153 24.72C130.366 24.5867 130.473 24.32 130.473 23.92C130.473 23.4133 130.419 23.04 130.313 22.8C130.233 22.5333 129.953 22.32 129.473 22.16ZM132.433 22.8C132.353 22.5333 132.206 22.4 131.993 22.4C131.833 22.4 131.739 22.44 131.713 22.52C131.686 22.6 131.646 22.7067 131.593 22.84C131.539 23.08 131.579 23.2533 131.713 23.36C131.819 23.44 131.899 23.4667 131.953 23.44C132.033 23.3867 132.113 23.32 132.193 23.24C132.299 23.16 132.379 23.1067 132.433 23.08C132.486 23.0267 132.486 22.9333 132.433 22.8ZM127.753 27C127.699 26.7867 127.606 26.68 127.473 26.68C127.339 26.6533 127.153 26.6133 126.913 26.56C126.619 26.5067 126.406 26.6133 126.273 26.88C126.166 27.0667 126.086 27.2267 126.033 27.36C125.979 27.4667 126.033 27.6133 126.193 27.8C126.406 27.9867 126.579 28.1067 126.713 28.16C126.846 28.1867 127.033 28.1333 127.273 28C127.513 27.8933 127.659 27.7733 127.713 27.64C127.766 27.5067 127.779 27.2933 127.753 27ZM132.953 26.92C132.846 26.7333 132.726 26.64 132.593 26.64C132.486 26.64 132.326 26.6533 132.113 26.68C131.953 26.7067 131.846 26.76 131.793 26.84C131.766 26.92 131.739 27.04 131.713 27.2C131.686 27.3867 131.659 27.5467 131.633 27.68C131.633 27.7867 131.726 27.88 131.913 27.96C132.099 28.0667 132.246 28.1067 132.353 28.08C132.459 28.0267 132.593 27.9333 132.753 27.8C132.913 27.6133 133.006 27.4667 133.033 27.36C133.086 27.2533 133.059 27.1067 132.953 26.92ZM151.424 30.4C149.904 30.4 148.558 30.12 147.384 29.56C146.211 29 145.291 28.24 144.624 27.28C143.984 26.32 143.664 25.24 143.664 24.04C143.664 22.0933 144.451 20.5733 146.024 19.48C147.624 18.36 149.758 17.5733 152.424 17.12L156.664 16.4C156.664 15.7067 156.598 15.2 156.464 14.88C156.358 14.56 156.024 14.4 155.464 14.4C155.091 14.4 154.784 14.48 154.544 14.64C154.331 14.7733 154.091 14.9733 153.824 15.24C153.531 15.5333 153.158 15.68 152.704 15.68H145.904C145.638 15.68 145.411 15.6 145.224 15.44C145.064 15.28 144.998 15.0667 145.024 14.8C145.051 14.2933 145.264 13.7067 145.664 13.04C146.064 12.3467 146.678 11.68 147.504 11.04C148.358 10.4 149.438 9.86667 150.744 9.44C152.078 9.01333 153.678 8.8 155.544 8.8C159.171 8.8 161.864 9.56 163.624 11.08C165.384 12.5733 166.264 14.6933 166.264 17.44V28.92C166.264 29.2133 166.158 29.4667 165.944 29.68C165.731 29.8933 165.478 30 165.184 30H158.184C157.891 30 157.638 29.8933 157.424 29.68C157.211 29.4667 157.104 29.2133 157.104 28.92V27.8C156.518 28.6 155.731 29.24 154.744 29.72C153.784 30.1733 152.678 30.4 151.424 30.4ZM154.704 9.84H154.304L154.104 10.08L154.264 10.44L154.664 10.28L154.704 9.84ZM153.024 10.6C152.784 10.52 152.584 10.4667 152.424 10.44C152.291 10.3867 152.158 10.4533 152.024 10.64C151.864 10.88 151.798 11.0667 151.824 11.2C151.878 11.3333 151.984 11.5067 152.144 11.72C152.278 11.9067 152.398 12 152.504 12C152.638 11.9733 152.811 11.92 153.024 11.84C153.318 11.76 153.464 11.56 153.464 11.24C153.464 10.8933 153.318 10.68 153.024 10.6ZM159.744 10.92C159.638 10.68 159.438 10.5733 159.144 10.6C158.851 10.6267 158.678 10.7733 158.624 11.04C158.598 11.2267 158.584 11.3733 158.584 11.48C158.584 11.5867 158.664 11.6933 158.824 11.8C159.011 11.88 159.144 11.9067 159.224 11.88C159.331 11.8533 159.464 11.7733 159.624 11.64C159.838 11.4533 159.878 11.2133 159.744 10.92ZM157.344 11.88C157.024 11.88 156.811 12.04 156.704 12.36C156.651 12.52 156.651 12.64 156.704 12.72C156.758 12.7733 156.851 12.8533 156.984 12.96C157.171 13.12 157.371 13.1333 157.584 13C157.744 12.8933 157.798 12.7067 157.744 12.44C157.691 12.28 157.651 12.1467 157.624 12.04C157.598 11.9333 157.504 11.88 157.344 11.88ZM148.824 12.04C148.664 11.9333 148.531 11.9067 148.424 11.96C148.344 12.0133 148.224 12.1067 148.064 12.24C147.931 12.3733 147.824 12.48 147.744 12.56C147.691 12.64 147.691 12.7733 147.744 12.96C147.824 13.1467 147.904 13.28 147.984 13.36C148.091 13.44 148.251 13.4667 148.464 13.44C148.678 13.4133 148.824 13.36 148.904 13.28C148.984 13.2 149.038 13.0533 149.064 12.84C149.118 12.6267 149.131 12.4667 149.104 12.36C149.104 12.2533 149.011 12.1467 148.824 12.04ZM162.624 13.44L162.264 13.56L161.944 13.8L162.304 13.92L162.664 13.88L162.624 13.44ZM160.944 14.2C160.784 14.0667 160.651 13.9733 160.544 13.92C160.464 13.84 160.331 13.8533 160.144 13.96C159.984 14.0667 159.918 14.1867 159.944 14.32C159.998 14.4267 160.051 14.5733 160.104 14.76C160.158 14.9467 160.198 15.1067 160.224 15.24C160.251 15.3733 160.358 15.44 160.544 15.44C160.784 15.44 160.958 15.4133 161.064 15.36C161.171 15.3067 161.278 15.1733 161.384 14.96C161.438 14.7467 161.411 14.6 161.304 14.52C161.224 14.44 161.104 14.3333 160.944 14.2ZM149.864 14.28L149.424 13.92L149.024 14.24L149.144 14.76L149.584 14.64L149.864 14.28ZM158.544 15.08L158.184 14.6L157.824 15.04L157.864 15.44L158.304 15.56L158.544 15.08ZM164.504 16.44C164.344 16.28 164.211 16.1733 164.104 16.12C163.998 16.0667 163.851 16.0933 163.664 16.2C163.451 16.3067 163.318 16.4267 163.264 16.56C163.238 16.6667 163.238 16.8267 163.264 17.04C163.318 17.2533 163.384 17.3867 163.464 17.44C163.571 17.4667 163.731 17.4933 163.944 17.52C164.131 17.5467 164.264 17.5467 164.344 17.52C164.451 17.4933 164.544 17.3867 164.624 17.2C164.784 16.9067 164.744 16.6533 164.504 16.44ZM160.224 17.8L159.944 17.52L159.584 17.88L159.864 18.32L160.304 18.16L160.224 17.8ZM152.664 18.28C152.478 18.0667 152.238 18.0133 151.944 18.12C151.758 18.1733 151.624 18.24 151.544 18.32C151.491 18.3733 151.464 18.4933 151.464 18.68C151.464 18.8667 151.504 18.9867 151.584 19.04C151.664 19.0933 151.798 19.1467 151.984 19.2C152.171 19.28 152.318 19.3333 152.424 19.36C152.558 19.3867 152.678 19.3067 152.784 19.12C152.918 18.96 152.958 18.8267 152.904 18.72C152.878 18.6133 152.798 18.4667 152.664 18.28ZM158.744 18.32L158.384 18.36L158.184 18.6L158.424 18.92L158.744 18.68V18.32ZM149.704 18.8C149.491 18.7467 149.331 18.76 149.224 18.84C149.144 18.8933 149.051 19.0133 148.944 19.2C148.811 19.36 148.718 19.5067 148.664 19.64C148.638 19.7467 148.691 19.88 148.824 20.04C148.958 20.2 149.078 20.28 149.184 20.28C149.291 20.2533 149.451 20.2 149.664 20.12C149.958 20.0133 150.104 19.8267 150.104 19.56C150.104 19.3467 150.091 19.1867 150.064 19.08C150.038 18.9467 149.918 18.8533 149.704 18.8ZM164.104 20.44C163.944 19.88 163.704 19.56 163.384 19.48C163.091 19.3733 162.651 19.3067 162.064 19.28C161.478 19.2533 161.038 19.2933 160.744 19.4C160.451 19.48 160.211 19.7867 160.024 20.32C159.784 20.96 159.651 21.48 159.624 21.88C159.598 22.2533 159.864 22.64 160.424 23.04C160.931 23.44 161.331 23.52 161.624 23.28C161.918 23.04 162.331 22.7333 162.864 22.36C163.344 22.04 163.704 21.7733 163.944 21.56C164.211 21.3467 164.264 20.9733 164.104 20.44ZM146.864 20.44C146.678 20.44 146.544 20.4533 146.464 20.48C146.384 20.5067 146.304 20.6 146.224 20.76C146.144 20.9733 146.078 21.16 146.024 21.32C145.971 21.4533 146.038 21.5867 146.224 21.72C146.438 21.9067 146.611 22.0133 146.744 22.04C146.904 22.0667 147.104 22 147.344 21.84C147.584 21.7067 147.704 21.5733 147.704 21.44C147.704 21.28 147.664 21.0667 147.584 20.8C147.558 20.6133 147.478 20.52 147.344 20.52C147.238 20.4933 147.078 20.4667 146.864 20.44ZM151.904 21.16C151.638 21.0533 151.424 21.08 151.264 21.24C151.104 21.4 151.091 21.6133 151.224 21.88C151.358 22.0933 151.531 22.1867 151.744 22.16C151.931 22.1333 152.064 22.1067 152.144 22.08C152.224 22.0267 152.278 21.9067 152.304 21.72C152.331 21.56 152.304 21.4533 152.224 21.4C152.171 21.32 152.064 21.24 151.904 21.16ZM154.184 24.48C154.958 24.48 155.584 24.2267 156.064 23.72C156.544 23.2133 156.784 22.4267 156.784 21.36L154.424 21.88C153.731 22.04 153.264 22.2533 153.024 22.52C152.784 22.7867 152.664 23.0667 152.664 23.36C152.664 23.6533 152.784 23.92 153.024 24.16C153.291 24.3733 153.678 24.48 154.184 24.48ZM146.944 23C146.491 22.8933 146.144 22.88 145.904 22.96C145.664 23.04 145.424 23.28 145.184 23.68C144.971 24.0267 144.971 24.28 145.184 24.44C145.424 24.6 145.678 24.8267 145.944 25.12C146.131 25.3333 146.291 25.48 146.424 25.56C146.584 25.6133 146.798 25.5867 147.064 25.48C147.464 25.2933 147.784 25.1733 148.024 25.12C148.291 25.04 148.411 24.7733 148.384 24.32C148.331 23.84 148.198 23.5333 147.984 23.4C147.771 23.24 147.424 23.1067 146.944 23ZM151.184 23.92C151.051 23.7333 150.918 23.6667 150.784 23.72C150.624 23.7467 150.504 23.7867 150.424 23.84C150.371 23.8667 150.344 23.96 150.344 24.12C150.344 24.2533 150.384 24.3333 150.464 24.36C150.571 24.36 150.691 24.3867 150.824 24.44C150.984 24.4933 151.104 24.4533 151.184 24.32C151.291 24.1867 151.291 24.0533 151.184 23.92ZM160.544 24.08L160.144 23.8L159.864 24.12L159.944 24.48H160.344L160.544 24.08ZM158.664 25.28C158.584 25.12 158.491 25.04 158.384 25.04C158.278 25.04 158.131 25.0533 157.944 25.08C157.704 25.1333 157.558 25.28 157.504 25.52C157.478 25.7333 157.584 25.9067 157.824 26.04C157.984 26.12 158.158 26.08 158.344 25.92C158.478 25.7867 158.584 25.6933 158.664 25.64C158.744 25.56 158.744 25.44 158.664 25.28ZM163.744 25.72C163.718 25.5067 163.584 25.3733 163.344 25.32C163.211 25.2933 163.104 25.28 163.024 25.28C162.944 25.28 162.864 25.3467 162.784 25.48C162.624 25.7467 162.638 25.9733 162.824 26.16C162.931 26.2667 163.024 26.2933 163.104 26.24C163.184 26.1867 163.291 26.1333 163.424 26.08C163.531 26.0267 163.611 25.9867 163.664 25.96C163.718 25.9067 163.744 25.8267 163.744 25.72ZM152.624 26.52C152.518 26.2267 152.384 26.0533 152.224 26C152.064 25.92 151.824 25.88 151.504 25.88C151.238 25.88 151.064 25.9467 150.984 26.08C150.904 26.2133 150.824 26.4133 150.744 26.68C150.664 27 150.598 27.2533 150.544 27.44C150.491 27.6 150.598 27.7733 150.864 27.96C151.104 28.12 151.291 28.1333 151.424 28C151.558 27.84 151.744 27.6667 151.984 27.48C152.224 27.2933 152.411 27.16 152.544 27.08C152.704 26.9733 152.731 26.7867 152.624 26.52ZM160.984 26.2C160.824 26.0667 160.678 26 160.544 26C160.438 25.9733 160.304 26.0267 160.144 26.16C159.851 26.4 159.771 26.6933 159.904 27.04C159.984 27.2267 160.078 27.3333 160.184 27.36C160.291 27.36 160.451 27.36 160.664 27.36C160.931 27.3333 161.104 27.1867 161.184 26.92C161.211 26.7333 161.224 26.5867 161.224 26.48C161.224 26.3733 161.144 26.28 160.984 26.2ZM154.304 27.68L153.864 27.36L153.544 27.64L153.424 28.08L153.944 28.04L154.304 27.68ZM148.784 27.48C148.571 27.4 148.424 27.4133 148.344 27.52C148.291 27.6267 148.198 27.76 148.064 27.92C147.958 28.0533 147.878 28.16 147.824 28.24C147.771 28.32 147.784 28.4267 147.864 28.56C147.998 28.8 148.224 28.8933 148.544 28.84C148.758 28.7867 148.918 28.7467 149.024 28.72C149.131 28.6667 149.198 28.5333 149.224 28.32C149.251 28.08 149.238 27.9067 149.184 27.8C149.131 27.6667 148.998 27.56 148.784 27.48ZM160.024 28.56L159.784 28.16L159.384 28.56L159.624 29L159.984 28.8L160.024 28.56ZM163.544 28.48L163.184 28.6L162.984 28.84L163.264 29.04L163.544 28.84V28.48ZM170.747 30C170.454 30 170.201 29.8933 169.987 29.68C169.774 29.4667 169.667 29.2133 169.667 28.92V10.28C169.667 9.98667 169.774 9.73333 169.987 9.52C170.201 9.30667 170.454 9.2 170.747 9.2H177.747C178.041 9.2 178.294 9.30667 178.507 9.52C178.721 9.73333 178.827 9.98667 178.827 10.28V11.68C179.681 10.9333 180.627 10.3333 181.667 9.88C182.734 9.42667 183.867 9.2 185.067 9.2H186.987C187.281 9.2 187.534 9.30667 187.747 9.52C187.961 9.73333 188.067 9.98667 188.067 10.28V16.52C188.067 16.8133 187.961 17.0667 187.747 17.28C187.534 17.4933 187.281 17.6 186.987 17.6H181.827C180.227 17.6 179.427 18.4 179.427 20V28.92C179.427 29.2133 179.321 29.4667 179.107 29.68C178.894 29.8933 178.641 30 178.347 30H170.747ZM176.547 11.44C176.441 11.1733 176.321 10.9867 176.187 10.88C176.081 10.7733 175.881 10.72 175.587 10.72C175.241 10.72 174.974 10.7467 174.787 10.8C174.627 10.8533 174.494 11.04 174.387 11.36C174.254 11.76 174.174 12.08 174.147 12.32C174.147 12.5333 174.321 12.7733 174.667 13.04C175.014 13.28 175.294 13.3733 175.507 13.32C175.747 13.2667 176.041 13.12 176.387 12.88C176.681 12.6667 176.801 12.4667 176.747 12.28C176.721 12.0667 176.654 11.7867 176.547 11.44ZM183.027 11.04L182.707 10.96L182.387 11.08L182.547 11.4L182.947 11.44L183.027 11.04ZM181.667 12.04C181.081 11.8 180.627 11.7467 180.307 11.88C179.987 11.9867 179.627 12.2933 179.227 12.8C178.827 13.28 178.614 13.68 178.587 14C178.587 14.32 178.761 14.7467 179.107 15.28C179.427 15.8133 179.734 16.1467 180.027 16.28C180.347 16.3867 180.814 16.36 181.427 16.2C182.014 16.04 182.374 15.8267 182.507 15.56C182.667 15.2667 182.761 14.8267 182.787 14.24C182.814 13.6 182.774 13.1333 182.667 12.84C182.587 12.52 182.254 12.2533 181.667 12.04ZM171.507 13.16L171.227 13.36L171.307 13.68L171.707 13.72L171.867 13.36L171.507 13.16ZM186.667 14.44C186.614 14.2 186.534 14.0533 186.427 14C186.321 13.92 186.134 13.8533 185.867 13.8C185.574 13.7733 185.334 13.7467 185.147 13.72C184.987 13.6933 184.841 13.8133 184.707 14.08C184.547 14.3733 184.481 14.6133 184.507 14.8C184.534 14.96 184.667 15.1733 184.907 15.44C185.147 15.6533 185.347 15.76 185.507 15.76C185.694 15.7333 185.921 15.64 186.187 15.48C186.454 15.3467 186.601 15.2133 186.627 15.08C186.681 14.9467 186.694 14.7333 186.667 14.44ZM175.347 15.76C175.294 15.2533 175.134 14.9467 174.867 14.84C174.627 14.7333 174.267 14.6267 173.787 14.52C173.227 14.3867 172.774 14.2667 172.427 14.16C172.107 14.0533 171.801 14.2533 171.507 14.76C171.214 15.2667 171.161 15.6533 171.347 15.92C171.561 16.1867 171.854 16.5467 172.227 17C172.601 17.4267 172.907 17.7333 173.147 17.92C173.387 18.08 173.761 18.0533 174.267 17.84C174.801 17.6 175.121 17.3467 175.227 17.08C175.361 16.7867 175.401 16.3467 175.347 15.76ZM178.787 16.84C178.601 16.5733 178.427 16.4 178.267 16.32C178.134 16.24 177.907 16.24 177.587 16.32C177.294 16.4 177.121 16.5333 177.067 16.72C177.041 16.88 177.027 17.1067 177.027 17.4C177.027 17.6933 177.054 17.9067 177.107 18.04C177.161 18.1733 177.307 18.28 177.547 18.36C177.841 18.4667 178.054 18.5067 178.187 18.48C178.347 18.4267 178.521 18.28 178.707 18.04C178.894 17.8 179.001 17.6 179.027 17.44C179.054 17.28 178.974 17.08 178.787 16.84ZM171.507 18.24C171.321 18.1867 171.201 18.2133 171.147 18.32C171.094 18.4 171.014 18.5067 170.907 18.64C170.827 18.7733 170.761 18.88 170.707 18.96C170.681 19.0133 170.721 19.1067 170.827 19.24C170.987 19.48 171.187 19.56 171.427 19.48C171.721 19.4 171.867 19.2133 171.867 18.92C171.867 18.7333 171.854 18.5867 171.827 18.48C171.801 18.3733 171.694 18.2933 171.507 18.24ZM173.747 19.2C173.614 19.0933 173.494 19.0133 173.387 18.96C173.307 18.88 173.174 18.8933 172.987 19C172.827 19.1067 172.747 19.2133 172.747 19.32C172.774 19.4267 172.801 19.5733 172.827 19.76C172.881 19.9467 172.921 20.0933 172.947 20.2C173.001 20.28 173.121 20.3333 173.307 20.36C173.494 20.3867 173.614 20.36 173.667 20.28C173.721 20.1733 173.787 20.0267 173.867 19.84C173.974 19.5733 173.934 19.36 173.747 19.2ZM176.187 19.2C176.081 19.0933 175.987 19.0267 175.907 19C175.827 18.9467 175.721 18.96 175.587 19.04C175.427 19.12 175.334 19.2 175.307 19.28C175.307 19.36 175.321 19.48 175.347 19.64C175.401 19.88 175.561 20.0133 175.827 20.04C175.987 20.0667 176.107 20.08 176.187 20.08C176.294 20.0533 176.387 19.9733 176.467 19.84C176.521 19.68 176.521 19.5733 176.467 19.52C176.414 19.44 176.321 19.3333 176.187 19.2ZM178.187 20.16C178.187 20 178.134 19.9067 178.027 19.88C177.947 19.8267 177.827 19.7733 177.667 19.72C177.507 19.6933 177.374 19.6667 177.267 19.64C177.187 19.6133 177.107 19.6667 177.027 19.8C176.921 19.9333 176.881 20.0533 176.907 20.16C176.934 20.24 177.001 20.3467 177.107 20.48C177.214 20.64 177.307 20.7467 177.387 20.8C177.467 20.8267 177.587 20.8133 177.747 20.76C178.041 20.6533 178.187 20.4533 178.187 20.16ZM172.387 21.6C172.361 21.44 172.227 21.3467 171.987 21.32C171.774 21.2933 171.627 21.3467 171.547 21.48C171.467 21.6667 171.494 21.84 171.627 22C171.814 22.16 172.001 22.2 172.187 22.12C172.347 22.0133 172.414 21.84 172.387 21.6ZM174.707 22.16C174.201 22 173.814 21.9733 173.547 22.08C173.281 22.16 173.001 22.4267 172.707 22.88C172.387 23.3067 172.201 23.6667 172.147 23.96C172.121 24.2533 172.267 24.6133 172.587 25.04C172.881 25.44 173.161 25.5867 173.427 25.48C173.694 25.3467 174.054 25.2133 174.507 25.08C174.907 24.9467 175.201 24.8267 175.387 24.72C175.601 24.5867 175.707 24.32 175.707 23.92C175.707 23.4133 175.654 23.04 175.547 22.8C175.467 22.5333 175.187 22.32 174.707 22.16ZM177.667 22.8C177.587 22.5333 177.441 22.4 177.227 22.4C177.067 22.4 176.974 22.44 176.947 22.52C176.921 22.6 176.881 22.7067 176.827 22.84C176.774 23.08 176.814 23.2533 176.947 23.36C177.054 23.44 177.134 23.4667 177.187 23.44C177.267 23.3867 177.347 23.32 177.427 23.24C177.534 23.16 177.614 23.1067 177.667 23.08C177.721 23.0267 177.721 22.9333 177.667 22.8ZM172.987 27C172.934 26.7867 172.841 26.68 172.707 26.68C172.574 26.6533 172.387 26.6133 172.147 26.56C171.854 26.5067 171.641 26.6133 171.507 26.88C171.401 27.0667 171.321 27.2267 171.267 27.36C171.214 27.4667 171.267 27.6133 171.427 27.8C171.641 27.9867 171.814 28.1067 171.947 28.16C172.081 28.1867 172.267 28.1333 172.507 28C172.747 27.8933 172.894 27.7733 172.947 27.64C173.001 27.5067 173.014 27.2933 172.987 27ZM178.187 26.92C178.081 26.7333 177.961 26.64 177.827 26.64C177.721 26.64 177.561 26.6533 177.347 26.68C177.187 26.7067 177.081 26.76 177.027 26.84C177.001 26.92 176.974 27.04 176.947 27.2C176.921 27.3867 176.894 27.5467 176.867 27.68C176.867 27.7867 176.961 27.88 177.147 27.96C177.334 28.0667 177.481 28.1067 177.587 28.08C177.694 28.0267 177.827 27.9333 177.987 27.8C178.147 27.6133 178.241 27.4667 178.267 27.36C178.321 27.2533 178.294 27.1067 178.187 26.92ZM194.49 37.6C194.25 37.6 194.037 37.52 193.85 37.36C193.69 37.2 193.61 37 193.61 36.76C193.61 36.7067 193.61 36.64 193.61 36.56C193.61 36.5067 193.624 36.44 193.65 36.36L196.85 28.68L189.13 10.44C189.104 10.36 189.09 10.2667 189.09 10.16C189.144 9.89333 189.25 9.66667 189.41 9.48C189.597 9.29333 189.824 9.2 190.09 9.2H196.85C197.25 9.2 197.544 9.30667 197.73 9.52C197.917 9.73333 198.05 9.94667 198.13 10.16L201.41 19.28L204.81 10.16C204.917 9.92 205.064 9.70667 205.25 9.52C205.464 9.30667 205.77 9.2 206.17 9.2H212.85C213.09 9.2 213.304 9.29333 213.49 9.48C213.677 9.64 213.77 9.82667 213.77 10.04C213.77 10.2 213.757 10.3333 213.73 10.44L202.45 36.64C202.344 36.88 202.184 37.0933 201.97 37.28C201.757 37.4933 201.45 37.6 201.05 37.6H194.49ZM193.29 11.6C193.05 11.4933 192.864 11.4933 192.73 11.6C192.624 11.68 192.49 11.8133 192.33 12C192.17 12.1867 192.064 12.3467 192.01 12.48C191.984 12.6133 192.037 12.7867 192.17 13C192.304 13.2133 192.437 13.3333 192.57 13.36C192.704 13.36 192.89 13.32 193.13 13.24C193.37 13.1867 193.544 13.12 193.65 13.04C193.757 12.96 193.824 12.7867 193.85 12.52C193.877 12.2533 193.85 12.0533 193.77 11.92C193.69 11.7867 193.53 11.68 193.29 11.6ZM196.77 12.16L196.49 12.44L196.45 12.8L196.89 12.92V12.52L196.77 12.16ZM210.01 13.24C209.85 12.9467 209.69 12.7467 209.53 12.64C209.397 12.5067 209.17 12.4667 208.85 12.52C208.424 12.6 208.117 12.6933 207.93 12.8C207.744 12.9067 207.61 13.16 207.53 13.56C207.477 13.96 207.517 14.2533 207.65 14.44C207.81 14.6 208.09 14.7733 208.49 14.96C208.89 15.1467 209.21 15.28 209.45 15.36C209.69 15.4133 209.97 15.28 210.29 14.96C210.584 14.64 210.65 14.3733 210.49 14.16C210.357 13.9467 210.197 13.64 210.01 13.24ZM195.05 13.28L194.73 13.12L194.37 13.28L194.53 13.68L194.89 13.6L195.05 13.28ZM197.77 13.88C197.424 13.7733 197.144 13.8533 196.93 14.12C196.824 14.28 196.81 14.4 196.89 14.48C196.97 14.56 197.064 14.6667 197.17 14.8C197.277 14.96 197.357 15.0933 197.41 15.2C197.464 15.28 197.584 15.2933 197.77 15.24C197.93 15.1867 197.997 15.1067 197.97 15C197.97 14.8933 197.97 14.7467 197.97 14.56C197.97 14.3733 197.97 14.2267 197.97 14.12C197.997 14.0133 197.93 13.9333 197.77 13.88ZM192.45 14.32L192.01 14.4L192.09 14.76L192.37 15L192.53 14.68L192.45 14.32ZM194.77 14.64C194.557 14.56 194.384 14.48 194.25 14.4C194.144 14.2933 194.024 14.3333 193.89 14.52C193.784 14.68 193.784 14.8133 193.89 14.92C193.997 15 194.104 15.1333 194.21 15.32C194.317 15.48 194.397 15.6 194.45 15.68C194.53 15.76 194.65 15.7733 194.81 15.72C194.997 15.6667 195.104 15.5867 195.13 15.48C195.157 15.3733 195.17 15.2267 195.17 15.04C195.17 14.9067 195.13 14.8133 195.05 14.76C194.997 14.7067 194.904 14.6667 194.77 14.64ZM204.97 16.04C204.517 15.9333 204.184 15.9467 203.97 16.08C203.784 16.2133 203.57 16.4667 203.33 16.84C203.144 17.1333 203.13 17.36 203.29 17.52C203.45 17.68 203.65 17.8933 203.89 18.16C204.077 18.3733 204.237 18.52 204.37 18.6C204.504 18.68 204.704 18.6667 204.97 18.56C205.29 18.4267 205.53 18.3067 205.69 18.2C205.85 18.0933 205.917 17.8667 205.89 17.52C205.864 17.0933 205.797 16.7733 205.69 16.56C205.61 16.32 205.37 16.1467 204.97 16.04ZM196.53 17.24C196.477 17 196.304 16.88 196.01 16.88C195.824 16.88 195.677 16.88 195.57 16.88C195.464 16.88 195.37 16.9733 195.29 17.16C195.157 17.48 195.237 17.76 195.53 18C195.744 18.16 195.904 18.2667 196.01 18.32C196.144 18.3467 196.317 18.2933 196.53 18.16C196.717 18.0267 196.784 17.8933 196.73 17.76C196.677 17.6267 196.61 17.4533 196.53 17.24ZM193.97 16.92C193.784 16.8667 193.65 16.88 193.57 16.96C193.49 17.0133 193.397 17.1333 193.29 17.32C193.157 17.48 193.05 17.6267 192.97 17.76C192.917 17.8667 192.957 18 193.09 18.16C193.357 18.48 193.677 18.5733 194.05 18.44C194.29 18.36 194.437 18.2667 194.49 18.16C194.544 18.0267 194.57 17.84 194.57 17.6C194.57 17.3867 194.53 17.24 194.45 17.16C194.37 17.0533 194.21 16.9733 193.97 16.92ZM208.21 17.88C207.97 17.88 207.837 17.96 207.81 18.12C207.81 18.28 207.77 18.4667 207.69 18.68C207.584 18.92 207.637 19.12 207.85 19.28C207.984 19.4133 208.09 19.52 208.17 19.6C208.277 19.6533 208.41 19.6267 208.57 19.52C208.757 19.3867 208.864 19.2667 208.89 19.16C208.917 19.0533 208.904 18.8933 208.85 18.68C208.797 18.44 208.744 18.2533 208.69 18.12C208.637 17.9867 208.477 17.9067 208.21 17.88ZM205.45 20.4C205.264 20.2933 205.117 20.2667 205.01 20.32C204.904 20.3733 204.784 20.4667 204.65 20.6C204.517 20.7333 204.45 20.8533 204.45 20.96C204.477 21.0667 204.544 21.2 204.65 21.36C204.73 21.52 204.797 21.64 204.85 21.72C204.93 21.7733 205.064 21.7867 205.25 21.76C205.437 21.7067 205.557 21.64 205.61 21.56C205.664 21.48 205.704 21.3467 205.73 21.16C205.757 20.9467 205.757 20.7867 205.73 20.68C205.73 20.5733 205.637 20.48 205.45 20.4ZM199.77 21.32C199.157 21.1867 198.664 21.1467 198.29 21.2C197.944 21.2267 197.624 21.52 197.33 22.08C196.93 22.7733 196.677 23.3333 196.57 23.76C196.49 24.16 196.73 24.6533 197.29 25.24C197.797 25.8 198.25 26.0133 198.65 25.88C199.077 25.72 199.624 25.48 200.29 25.16C200.93 24.8667 201.37 24.6 201.61 24.36C201.877 24.0933 201.97 23.6133 201.89 22.92C201.81 22.28 201.597 21.8933 201.25 21.76C200.93 21.6 200.437 21.4533 199.77 21.32ZM205.41 24.16L205.13 24.2L205.09 24.48L205.37 24.68L205.69 24.4L205.41 24.16ZM203.61 25.24C203.504 25.1067 203.41 25.0267 203.33 25C203.25 24.9467 203.144 24.9467 203.01 25C202.824 25.08 202.677 25.1467 202.57 25.2C202.49 25.2533 202.45 25.3867 202.45 25.6C202.45 25.84 202.477 26.0133 202.53 26.12C202.61 26.2267 202.77 26.3067 203.01 26.36C203.224 26.4133 203.37 26.4 203.45 26.32C203.53 26.24 203.624 26.1067 203.73 25.92C203.837 25.76 203.864 25.64 203.81 25.56C203.784 25.48 203.717 25.3733 203.61 25.24ZM204.81 27.92C204.677 27.7867 204.557 27.7467 204.45 27.8C204.344 27.8267 204.21 27.88 204.05 27.96C203.864 28.0667 203.784 28.2533 203.81 28.52C203.864 28.7333 203.997 28.8667 204.21 28.92C204.45 28.9467 204.624 28.8533 204.73 28.64C204.81 28.48 204.877 28.36 204.93 28.28C204.984 28.1733 204.944 28.0533 204.81 27.92ZM202.37 28.88C202.104 28.8533 201.944 28.92 201.89 29.08C201.837 29.2133 201.744 29.3867 201.61 29.6C201.45 29.8667 201.477 30.12 201.69 30.36C201.904 30.5733 202.157 30.6267 202.45 30.52C202.637 30.4133 202.784 30.32 202.89 30.24C202.997 30.1867 203.037 30.04 203.01 29.8C202.984 29.5333 202.93 29.3333 202.85 29.2C202.797 29.04 202.637 28.9333 202.37 28.88ZM200.17 31.32C200.064 31.08 199.957 30.92 199.85 30.84C199.77 30.76 199.61 30.72 199.37 30.72C199.13 30.7467 198.97 30.8 198.89 30.88C198.81 30.9867 198.744 31.16 198.69 31.4C198.61 31.6133 198.584 31.7733 198.61 31.88C198.664 32.0133 198.784 32.1467 198.97 32.28C199.29 32.4933 199.61 32.48 199.93 32.24C200.224 31.9733 200.304 31.6667 200.17 31.32ZM202.21 32.6C202.104 32.28 201.877 32.12 201.53 32.12C201.344 32.12 201.237 32.1733 201.21 32.28C201.21 32.4133 201.184 32.56 201.13 32.72C201.077 32.9067 201.13 33.0533 201.29 33.16C201.45 33.2667 201.61 33.2667 201.77 33.16C201.904 33.0533 202.024 32.9733 202.13 32.92C202.237 32.8667 202.264 32.76 202.21 32.6ZM198.01 33.84C197.85 33.5733 197.704 33.3867 197.57 33.28C197.437 33.1733 197.224 33.16 196.93 33.24C196.557 33.32 196.277 33.4133 196.09 33.52C195.904 33.6267 195.797 33.8667 195.77 34.24C195.744 34.64 195.81 34.9067 195.97 35.04C196.13 35.1733 196.397 35.32 196.77 35.48C197.144 35.64 197.437 35.7333 197.65 35.76C197.864 35.7867 198.104 35.64 198.37 35.32C198.61 35.0267 198.664 34.7867 198.53 34.6C198.397 34.4133 198.224 34.16 198.01 33.84Z" fill="#354545"/>
<path d="M58.2188 34H214.01V36H58.2188V34Z" fill="#354545"/>
</svg>
